<?xml version="1.0" encoding="utf-8" standalone="no"?>
<!DOCTYPE svg PUBLIC "-//W3C//DTD SVG 1.1//EN"
  "http://www.w3.org/Graphics/SVG/1.1/DTD/svg11.dtd">
<svg xmlns:xlink="http://www.w3.org/1999/xlink" width="576pt" height="576pt" viewBox="0 0 576 576" xmlns="http://www.w3.org/2000/svg" version="1.1">
 <metadata>
  <rdf:RDF xmlns:dc="http://purl.org/dc/elements/1.1/" xmlns:cc="http://creativecommons.org/ns#" xmlns:rdf="http://www.w3.org/1999/02/22-rdf-syntax-ns#">
   <cc:Work>
    <dc:type rdf:resource="http://purl.org/dc/dcmitype/StillImage"/>
    <dc:date>2023-03-27T17:08:40.270878</dc:date>
    <dc:format>image/svg+xml</dc:format>
    <dc:creator>
     <cc:Agent>
      <dc:title>Matplotlib v3.7.1, https://matplotlib.org/</dc:title>
     </cc:Agent>
    </dc:creator>
   </cc:Work>
  </rdf:RDF>
 </metadata>
 <defs>
  <style type="text/css">*{stroke-linejoin: round; stroke-linecap: butt}</style>
 </defs>
 <g id="figure_1">
  <g id="patch_1">
   <path d="M 0 576 
L 576 576 
L 576 0 
L 0 0 
z
" style="fill: #ffffff"/>
  </g>
  <g id="axes_1">
   <g id="patch_2">
    <path d="M 72 512.64 
L 518.4 512.64 
L 518.4 69.12 
L 72 69.12 
z
" style="fill: #ffffff"/>
   </g>
   <g id="PathCollection_1">
    <path d="M 248.586863 231.542402 
C 249.401682 231.542402 250.183237 231.218671 250.759401 230.642507 
C 251.335565 230.066344 251.659296 229.284788 251.659296 228.469969 
C 251.659296 227.65515 251.335565 226.873595 250.759401 226.297431 
C 250.183237 225.721267 249.401682 225.397536 248.586863 225.397536 
C 247.772044 225.397536 246.990488 225.721267 246.414324 226.297431 
C 245.83816 226.873595 245.514429 227.65515 245.514429 228.469969 
C 245.514429 229.284788 245.83816 230.066344 246.414324 230.642507 
C 246.990488 231.218671 247.772044 231.542402 248.586863 231.542402 
z
" clip-path="url(#pbf8b369759)" style="fill: #46337f; stroke: #46337f"/>
    <path d="M 97.7515 487.288139 
C 98.422451 487.288139 99.066012 487.021567 99.540446 486.547133 
C 100.014881 486.072698 100.281452 485.429137 100.281452 484.758186 
C 100.281452 484.087235 100.014881 483.443674 99.540446 482.96924 
C 99.066012 482.494805 98.422451 482.228234 97.7515 482.228234 
C 97.080549 482.228234 96.436987 482.494805 95.962553 482.96924 
C 95.488119 483.443674 95.221547 484.087235 95.221547 484.758186 
C 95.221547 485.429137 95.488119 486.072698 95.962553 486.547133 
C 96.436987 487.021567 97.080549 487.288139 97.7515 487.288139 
z
" clip-path="url(#pbf8b369759)" style="fill: #cde11d; stroke: #cde11d"/>
    <path d="M 151.835825 380.695649 
C 151.895873 380.695649 151.953471 380.671791 151.995932 380.629331 
C 152.038393 380.58687 152.06225 380.529272 152.06225 380.469223 
C 152.06225 380.409175 152.038393 380.351577 151.995932 380.309116 
C 151.953471 380.266656 151.895873 380.242798 151.835825 380.242798 
C 151.775776 380.242798 151.718178 380.266656 151.675718 380.309116 
C 151.633257 380.351577 151.609399 380.409175 151.609399 380.469223 
C 151.609399 380.529272 151.633257 380.58687 151.675718 380.629331 
C 151.718178 380.671791 151.775776 380.695649 151.835825 380.695649 
z
" clip-path="url(#pbf8b369759)" style="fill: #73d056; stroke: #73d056"/>
    <path d="M 236.637858 404.635908 
C 237.314621 404.635908 237.963756 404.367027 238.442299 403.888484 
C 238.920843 403.40994 239.189723 402.760805 239.189723 402.084042 
C 239.189723 401.40728 238.920843 400.758145 238.442299 400.279601 
C 237.963756 399.801058 237.314621 399.532177 236.637858 399.532177 
C 235.961095 399.532177 235.31196 399.801058 234.833417 400.279601 
C 234.354873 400.758145 234.085993 401.40728 234.085993 402.084042 
C 234.085993 402.760805 234.354873 403.40994 234.833417 403.888484 
C 235.31196 404.367027 235.961095 404.635908 236.637858 404.635908 
z
" clip-path="url(#pbf8b369759)" style="fill: #39568c; stroke: #39568c"/>
    <path d="M 345.801293 189.456016 
C 346.189998 189.456016 346.562835 189.301582 346.837691 189.026726 
C 347.112547 188.75187 347.266981 188.379034 347.266981 187.990329 
C 347.266981 187.601624 347.112547 187.228787 346.837691 186.953932 
C 346.562835 186.679076 346.189998 186.524642 345.801293 186.524642 
C 345.412589 186.524642 345.039752 186.679076 344.764896 186.953932 
C 344.49004 187.228787 344.335606 187.601624 344.335606 187.990329 
C 344.335606 188.379034 344.49004 188.75187 344.764896 189.026726 
C 345.039752 189.301582 345.412589 189.456016 345.801293 189.456016 
z
" clip-path="url(#pbf8b369759)" style="fill: #25838e; stroke: #25838e"/>
    <path d="M 318.316415 213.703978 
C 318.523638 213.703978 318.722401 213.621647 318.86893 213.475119 
C 319.015459 213.32859 319.097789 213.129826 319.097789 212.922603 
C 319.097789 212.71538 319.015459 212.516617 318.86893 212.370088 
C 318.722401 212.223559 318.523638 212.141229 318.316415 212.141229 
C 318.109192 212.141229 317.910428 212.223559 317.763899 212.370088 
C 317.617371 212.516617 317.53504 212.71538 317.53504 212.922603 
C 317.53504 213.129826 317.617371 213.32859 317.763899 213.475119 
C 317.910428 213.621647 318.109192 213.703978 318.316415 213.703978 
z
" clip-path="url(#pbf8b369759)" style="fill: #37b878; stroke: #37b878"/>
    <path d="M 242.477272 124.613406 
C 242.894411 124.613406 243.294522 124.447675 243.589484 124.152713 
C 243.884446 123.857751 244.050177 123.45764 244.050177 123.040501 
C 244.050177 122.623362 243.884446 122.223251 243.589484 121.928289 
C 243.294522 121.633327 242.894411 121.467596 242.477272 121.467596 
C 242.060133 121.467596 241.660023 121.633327 241.365061 121.928289 
C 241.070099 122.223251 240.904368 122.623362 240.904368 123.040501 
C 240.904368 123.45764 241.070099 123.857751 241.365061 124.152713 
C 241.660023 124.447675 242.060133 124.613406 242.477272 124.613406 
z
" clip-path="url(#pbf8b369759)" style="fill: #1f978b; stroke: #1f978b"/>
    <path d="M 164.561982 459.780572 
C 164.7885 459.780572 165.00577 459.690576 165.165942 459.530404 
C 165.326114 459.370232 165.41611 459.152962 165.41611 458.926444 
C 165.41611 458.699927 165.326114 458.482657 165.165942 458.322485 
C 165.00577 458.162313 164.7885 458.072316 164.561982 458.072316 
C 164.335465 458.072316 164.118195 458.162313 163.958023 458.322485 
C 163.797851 458.482657 163.707854 458.699927 163.707854 458.926444 
C 163.707854 459.152962 163.797851 459.370232 163.958023 459.530404 
C 164.118195 459.690576 164.335465 459.780572 164.561982 459.780572 
z
" clip-path="url(#pbf8b369759)" style="fill: #32658e; stroke: #32658e"/>
    <path d="M 160.606731 319.574169 
C 160.706835 319.574169 160.802853 319.534397 160.873637 319.463613 
C 160.944421 319.392828 160.984193 319.296811 160.984193 319.196707 
C 160.984193 319.096603 160.944421 319.000585 160.873637 318.929801 
C 160.802853 318.859017 160.706835 318.819245 160.606731 318.819245 
C 160.506627 318.819245 160.41061 318.859017 160.339825 318.929801 
C 160.269041 319.000585 160.229269 319.096603 160.229269 319.196707 
C 160.229269 319.296811 160.269041 319.392828 160.339825 319.463613 
C 160.41061 319.534397 160.506627 319.574169 160.606731 319.574169 
z
" clip-path="url(#pbf8b369759)" style="fill: #355e8d; stroke: #355e8d"/>
    <path d="M 114.334278 485.705314 
C 115.114951 485.705314 115.863755 485.395149 116.415775 484.84313 
C 116.967794 484.29111 117.277959 483.542306 117.277959 482.761633 
C 117.277959 481.980959 116.967794 481.232155 116.415775 480.680136 
C 115.863755 480.128116 115.114951 479.817951 114.334278 479.817951 
C 113.553604 479.817951 112.8048 480.128116 112.252781 480.680136 
C 111.700761 481.232155 111.390596 481.980959 111.390596 482.761633 
C 111.390596 483.542306 111.700761 484.29111 112.252781 484.84313 
C 112.8048 485.395149 113.553604 485.705314 114.334278 485.705314 
z
" clip-path="url(#pbf8b369759)" style="fill: #46085c; stroke: #46085c"/>
    <path d="M 242.397065 406.486971 
C 243.058884 406.486971 243.693685 406.224028 244.161661 405.756051 
C 244.629637 405.288075 244.89258 404.653274 244.89258 403.991456 
C 244.89258 403.329637 244.629637 402.694836 244.161661 402.22686 
C 243.693685 401.758884 243.058884 401.495941 242.397065 401.495941 
C 241.735247 401.495941 241.100446 401.758884 240.63247 402.22686 
C 240.164493 402.694836 239.90155 403.329637 239.90155 403.991456 
C 239.90155 404.653274 240.164493 405.288075 240.63247 405.756051 
C 241.100446 406.224028 241.735247 406.486971 242.397065 406.486971 
z
" clip-path="url(#pbf8b369759)" style="fill: #3e4c8a; stroke: #3e4c8a"/>
    <path d="M 276.507955 285.612479 
C 276.830958 285.612479 277.140776 285.484148 277.369173 285.25575 
C 277.597571 285.027352 277.725902 284.717535 277.725902 284.394531 
C 277.725902 284.071528 277.597571 283.761711 277.369173 283.533313 
C 277.140776 283.304915 276.830958 283.176584 276.507955 283.176584 
C 276.184951 283.176584 275.875134 283.304915 275.646736 283.533313 
C 275.418338 283.761711 275.290008 284.071528 275.290008 284.394531 
C 275.290008 284.717535 275.418338 285.027352 275.646736 285.25575 
C 275.875134 285.484148 276.184951 285.612479 276.507955 285.612479 
z
" clip-path="url(#pbf8b369759)" style="fill: #238a8d; stroke: #238a8d"/>
    <path d="M 129.872095 485.715359 
C 130.294663 485.715359 130.699982 485.54747 130.998783 485.248669 
C 131.297584 484.949868 131.465472 484.54455 131.465472 484.121981 
C 131.465472 483.699413 131.297584 483.294094 130.998783 482.995293 
C 130.699982 482.696492 130.294663 482.528604 129.872095 482.528604 
C 129.449526 482.528604 129.044208 482.696492 128.745407 482.995293 
C 128.446606 483.294094 128.278717 483.699413 128.278717 484.121981 
C 128.278717 484.54455 128.446606 484.949868 128.745407 485.248669 
C 129.044208 485.54747 129.449526 485.715359 129.872095 485.715359 
z
" clip-path="url(#pbf8b369759)" style="fill: #228b8d; stroke: #228b8d"/>
    <path d="M 193.558397 413.401922 
C 193.863715 413.401922 194.156568 413.280618 194.37246 413.064726 
C 194.588352 412.848834 194.709656 412.555981 194.709656 412.250664 
C 194.709656 411.945346 194.588352 411.652493 194.37246 411.436601 
C 194.156568 411.220709 193.863715 411.099405 193.558397 411.099405 
C 193.25308 411.099405 192.960227 411.220709 192.744335 411.436601 
C 192.528443 411.652493 192.407139 411.945346 192.407139 412.250664 
C 192.407139 412.555981 192.528443 412.848834 192.744335 413.064726 
C 192.960227 413.280618 193.25308 413.401922 193.558397 413.401922 
z
" clip-path="url(#pbf8b369759)" style="fill: #453581; stroke: #453581"/>
    <path d="M 369.269099 224.990126 
C 369.503088 224.990126 369.727524 224.897162 369.892979 224.731707 
C 370.058434 224.566252 370.151398 224.341816 370.151398 224.107828 
C 370.151398 223.873839 370.058434 223.649403 369.892979 223.483948 
C 369.727524 223.318493 369.503088 223.225529 369.269099 223.225529 
C 369.035111 223.225529 368.810675 223.318493 368.64522 223.483948 
C 368.479765 223.649403 368.3868 223.873839 368.3868 224.107828 
C 368.3868 224.341816 368.479765 224.566252 368.64522 224.731707 
C 368.810675 224.897162 369.035111 224.990126 369.269099 224.990126 
z
" clip-path="url(#pbf8b369759)" style="fill: #440154; stroke: #440154"/>
    <path d="M 318.423351 270.229345 
C 319.045835 270.229345 319.642908 269.982029 320.083071 269.541866 
C 320.523234 269.101703 320.77055 268.50463 320.77055 267.882146 
C 320.77055 267.259661 320.523234 266.662588 320.083071 266.222425 
C 319.642908 265.782263 319.045835 265.534947 318.423351 265.534947 
C 317.800866 265.534947 317.203793 265.782263 316.76363 266.222425 
C 316.323467 266.662588 316.076152 267.259661 316.076152 267.882146 
C 316.076152 268.50463 316.323467 269.101703 316.76363 269.541866 
C 317.203793 269.982029 317.800866 270.229345 318.423351 270.229345 
z
" clip-path="url(#pbf8b369759)" style="fill: #3c4f8a; stroke: #3c4f8a"/>
    <path d="M 135.822704 404.144101 
C 136.0626 404.144101 136.292703 404.04879 136.462335 403.879157 
C 136.631967 403.709525 136.727278 403.479423 136.727278 403.239527 
C 136.727278 402.999631 136.631967 402.769528 136.462335 402.599896 
C 136.292703 402.430264 136.0626 402.334952 135.822704 402.334952 
C 135.582808 402.334952 135.352705 402.430264 135.183073 402.599896 
C 135.013441 402.769528 134.918129 402.999631 134.918129 403.239527 
C 134.918129 403.479423 135.013441 403.709525 135.183073 403.879157 
C 135.352705 404.04879 135.582808 404.144101 135.822704 404.144101 
z
" clip-path="url(#pbf8b369759)" style="fill: #481668; stroke: #481668"/>
    <path d="M 158.0285 251.984073 
C 158.71555 251.984073 159.374553 251.711105 159.86037 251.225288 
C 160.346188 250.73947 160.619155 250.080468 160.619155 249.393418 
C 160.619155 248.706368 160.346188 248.047366 159.86037 247.561548 
C 159.374553 247.075731 158.71555 246.802763 158.0285 246.802763 
C 157.341451 246.802763 156.682448 247.075731 156.196631 247.561548 
C 155.710813 248.047366 155.437845 248.706368 155.437845 249.393418 
C 155.437845 250.080468 155.710813 250.73947 156.196631 251.225288 
C 156.682448 251.711105 157.341451 251.984073 158.0285 251.984073 
z
" clip-path="url(#pbf8b369759)" style="fill: #463480; stroke: #463480"/>
    <path d="M 270.335626 158.722532 
C 270.644672 158.722532 270.941102 158.599747 271.159631 158.381219 
C 271.378159 158.16269 271.500945 157.86626 271.500945 157.557214 
C 271.500945 157.248168 271.378159 156.951738 271.159631 156.733209 
C 270.941102 156.514681 270.644672 156.391895 270.335626 156.391895 
C 270.02658 156.391895 269.73015 156.514681 269.511621 156.733209 
C 269.293093 156.951738 269.170307 157.248168 269.170307 157.557214 
C 269.170307 157.86626 269.293093 158.16269 269.511621 158.381219 
C 269.73015 158.599747 270.02658 158.722532 270.335626 158.722532 
z
" clip-path="url(#pbf8b369759)" style="fill: #481467; stroke: #481467"/>
    <path d="M 99.446552 494.453077 
C 99.969818 494.453077 100.471724 494.245181 100.841729 493.875176 
C 101.211734 493.505171 101.41963 493.003266 101.41963 492.48 
C 101.41963 491.956734 101.211734 491.454829 100.841729 491.084824 
C 100.471724 490.714819 99.969818 490.506923 99.446552 490.506923 
C 98.923286 490.506923 98.421381 490.714819 98.051376 491.084824 
C 97.681371 491.454829 97.473475 491.956734 97.473475 492.48 
C 97.473475 493.003266 97.681371 493.505171 98.051376 493.875176 
C 98.421381 494.245181 98.923286 494.453077 99.446552 494.453077 
z
" clip-path="url(#pbf8b369759)" style="fill: #355e8d; stroke: #355e8d"/>
    <path d="M 239.275524 162.095328 
C 240.079564 162.095328 240.850781 161.775879 241.419323 161.207337 
C 241.987866 160.638795 242.307314 159.867577 242.307314 159.063537 
C 242.307314 158.259497 241.987866 157.48828 241.419323 156.919738 
C 240.850781 156.351195 240.079564 156.031747 239.275524 156.031747 
C 238.471483 156.031747 237.700266 156.351195 237.131724 156.919738 
C 236.563182 157.48828 236.243733 158.259497 236.243733 159.063537 
C 236.243733 159.867577 236.563182 160.638795 237.131724 161.207337 
C 237.700266 161.775879 238.471483 162.095328 239.275524 162.095328 
z
" clip-path="url(#pbf8b369759)" style="fill: #414287; stroke: #414287"/>
    <path d="M 412.058693 205.850619 
C 412.554924 205.850619 413.030897 205.653465 413.381785 205.302577 
C 413.732674 204.951688 413.929828 204.475715 413.929828 203.979484 
C 413.929828 203.483254 413.732674 203.00728 413.381785 202.656392 
C 413.030897 202.305504 412.554924 202.108349 412.058693 202.108349 
C 411.562462 202.108349 411.086489 202.305504 410.735601 202.656392 
C 410.384713 203.00728 410.187558 203.483254 410.187558 203.979484 
C 410.187558 204.475715 410.384713 204.951688 410.735601 205.302577 
C 411.086489 205.653465 411.562462 205.850619 412.058693 205.850619 
z
" clip-path="url(#pbf8b369759)" style="fill: #1f9e89; stroke: #1f9e89"/>
    <path d="M 269.120443 354.503195 
C 269.449124 354.503195 269.764387 354.372608 269.9968 354.140196 
C 270.229212 353.907783 270.359799 353.59252 270.359799 353.263839 
C 270.359799 352.935158 270.229212 352.619895 269.9968 352.387482 
C 269.764387 352.15507 269.449124 352.024484 269.120443 352.024484 
C 268.791762 352.024484 268.476499 352.15507 268.244087 352.387482 
C 268.011674 352.619895 267.881088 352.935158 267.881088 353.263839 
C 267.881088 353.59252 268.011674 353.907783 268.244087 354.140196 
C 268.476499 354.372608 268.791762 354.503195 269.120443 354.503195 
z
" clip-path="url(#pbf8b369759)" style="fill: #31688e; stroke: #31688e"/>
    <path d="M 134.421184 432.366434 
C 134.959548 432.366434 135.475935 432.15254 135.856616 431.771859 
C 136.237297 431.391178 136.451191 430.874791 136.451191 430.336427 
C 136.451191 429.798063 136.237297 429.281676 135.856616 428.900995 
C 135.475935 428.520314 134.959548 428.30642 134.421184 428.30642 
C 133.88282 428.30642 133.366433 428.520314 132.985752 428.900995 
C 132.605072 429.281676 132.391177 429.798063 132.391177 430.336427 
C 132.391177 430.874791 132.605072 431.391178 132.985752 431.771859 
C 133.366433 432.15254 133.88282 432.366434 134.421184 432.366434 
z
" clip-path="url(#pbf8b369759)" style="fill: #440256; stroke: #440256"/>
    <path d="M 412.778244 96.613264 
C 412.963848 96.613264 413.141875 96.539523 413.273117 96.408281 
C 413.404359 96.277039 413.4781 96.099012 413.4781 95.913408 
C 413.4781 95.727804 413.404359 95.549777 413.273117 95.418535 
C 413.141875 95.287294 412.963848 95.213552 412.778244 95.213552 
C 412.59264 95.213552 412.414613 95.287294 412.283371 95.418535 
C 412.15213 95.549777 412.078388 95.727804 412.078388 95.913408 
C 412.078388 96.099012 412.15213 96.277039 412.283371 96.408281 
C 412.414613 96.539523 412.59264 96.613264 412.778244 96.613264 
z
" clip-path="url(#pbf8b369759)" style="fill: #463480; stroke: #463480"/>
    <path d="M 185.813624 357.931413 
C 186.647045 357.931413 187.446443 357.600291 188.035761 357.010973 
C 188.625079 356.421656 188.956201 355.622257 188.956201 354.788836 
C 188.956201 353.955415 188.625079 353.156016 188.035761 352.566698 
C 187.446443 351.97738 186.647045 351.646259 185.813624 351.646259 
C 184.980203 351.646259 184.180804 351.97738 183.591486 352.566698 
C 183.002168 353.156016 182.671047 353.955415 182.671047 354.788836 
C 182.671047 355.622257 183.002168 356.421656 183.591486 357.010973 
C 184.180804 357.600291 184.980203 357.931413 185.813624 357.931413 
z
" clip-path="url(#pbf8b369759)" style="fill: #fde725; stroke: #fde725"/>
    <path d="M 186.501414 456.998298 
C 186.632452 456.998298 186.75814 456.946236 186.850797 456.853579 
C 186.943455 456.760921 186.995516 456.635233 186.995516 456.504196 
C 186.995516 456.373158 186.943455 456.24747 186.850797 456.154813 
C 186.75814 456.062155 186.632452 456.010093 186.501414 456.010093 
C 186.370377 456.010093 186.244688 456.062155 186.152031 456.154813 
C 186.059373 456.24747 186.007312 456.373158 186.007312 456.504196 
C 186.007312 456.635233 186.059373 456.760921 186.152031 456.853579 
C 186.244688 456.946236 186.370377 456.998298 186.501414 456.998298 
z
" clip-path="url(#pbf8b369759)" style="fill: #482576; stroke: #482576"/>
    <path d="M 138.019698 456.369431 
C 138.423189 456.369431 138.810209 456.209122 139.09552 455.92381 
C 139.380832 455.638499 139.541141 455.251479 139.541141 454.847987 
C 139.541141 454.444496 139.380832 454.057476 139.09552 453.772165 
C 138.810209 453.486853 138.423189 453.326544 138.019698 453.326544 
C 137.616206 453.326544 137.229186 453.486853 136.943875 453.772165 
C 136.658563 454.057476 136.498255 454.444496 136.498255 454.847987 
C 136.498255 455.251479 136.658563 455.638499 136.943875 455.92381 
C 137.229186 456.209122 137.616206 456.369431 138.019698 456.369431 
z
" clip-path="url(#pbf8b369759)" style="fill: #48186a; stroke: #48186a"/>
    <path d="M 263.031473 144.924636 
C 263.892011 144.924636 264.71742 144.582741 265.325912 143.974249 
C 265.934404 143.365757 266.276299 142.540348 266.276299 141.67981 
C 266.276299 140.819272 265.934404 139.993864 265.325912 139.385372 
C 264.71742 138.776879 263.892011 138.434984 263.031473 138.434984 
C 262.170935 138.434984 261.345527 138.776879 260.737035 139.385372 
C 260.128542 139.993864 259.786647 140.819272 259.786647 141.67981 
C 259.786647 142.540348 260.128542 143.365757 260.737035 143.974249 
C 261.345527 144.582741 262.170935 144.924636 263.031473 144.924636 
z
" clip-path="url(#pbf8b369759)" style="fill: #443983; stroke: #443983"/>
    <path d="M 211.187311 245.572765 
C 211.773706 245.572765 212.336163 245.339788 212.750808 244.925144 
C 213.165452 244.5105 213.398429 243.948042 213.398429 243.361647 
C 213.398429 242.775252 213.165452 242.212795 212.750808 241.798151 
C 212.336163 241.383507 211.773706 241.150529 211.187311 241.150529 
C 210.600916 241.150529 210.038459 241.383507 209.623815 241.798151 
C 209.20917 242.212795 208.976193 242.775252 208.976193 243.361647 
C 208.976193 243.948042 209.20917 244.5105 209.623815 244.925144 
C 210.038459 245.339788 210.600916 245.572765 211.187311 245.572765 
z
" clip-path="url(#pbf8b369759)" style="fill: #443b84; stroke: #443b84"/>
    <path d="M 341.28719 161.838713 
C 342.167983 161.838713 343.012819 161.48877 343.635634 160.865956 
C 344.258449 160.243141 344.608391 159.398305 344.608391 158.517512 
C 344.608391 157.636719 344.258449 156.791883 343.635634 156.169068 
C 343.012819 155.546253 342.167983 155.196311 341.28719 155.196311 
C 340.406397 155.196311 339.561561 155.546253 338.938746 156.169068 
C 338.315932 156.791883 337.965989 157.636719 337.965989 158.517512 
C 337.965989 159.398305 338.315932 160.243141 338.938746 160.865956 
C 339.561561 161.48877 340.406397 161.838713 341.28719 161.838713 
z
" clip-path="url(#pbf8b369759)" style="fill: #482071; stroke: #482071"/>
    <path d="M 239.511381 191.40904 
C 239.6725 191.40904 239.827041 191.345027 239.940969 191.231099 
C 240.054897 191.117171 240.11891 190.96263 240.11891 190.801512 
C 240.11891 190.640393 240.054897 190.485852 239.940969 190.371924 
C 239.827041 190.257997 239.6725 190.193984 239.511381 190.193984 
C 239.350263 190.193984 239.195722 190.257997 239.081794 190.371924 
C 238.967866 190.485852 238.903853 190.640393 238.903853 190.801512 
C 238.903853 190.96263 238.967866 191.117171 239.081794 191.231099 
C 239.195722 191.345027 239.350263 191.40904 239.511381 191.40904 
z
" clip-path="url(#pbf8b369759)" style="fill: #4ac16d; stroke: #4ac16d"/>
    <path d="M 273.199348 271.935297 
C 273.310357 271.935297 273.416834 271.891193 273.495329 271.812698 
C 273.573824 271.734203 273.617928 271.627726 273.617928 271.516717 
C 273.617928 271.405708 273.573824 271.299231 273.495329 271.220736 
C 273.416834 271.142241 273.310357 271.098137 273.199348 271.098137 
C 273.088339 271.098137 272.981862 271.142241 272.903367 271.220736 
C 272.824872 271.299231 272.780768 271.405708 272.780768 271.516717 
C 272.780768 271.627726 272.824872 271.734203 272.903367 271.812698 
C 272.981862 271.891193 273.088339 271.935297 273.199348 271.935297 
z
" clip-path="url(#pbf8b369759)" style="fill: #2b748e; stroke: #2b748e"/>
    <path d="M 498.109091 89.699953 
C 498.220464 89.699953 498.32729 89.655704 498.406042 89.576951 
C 498.484795 89.498199 498.529044 89.391373 498.529044 89.28 
C 498.529044 89.168627 498.484795 89.061801 498.406042 88.983049 
C 498.32729 88.904296 498.220464 88.860047 498.109091 88.860047 
C 497.997718 88.860047 497.890892 88.904296 497.81214 88.983049 
C 497.733387 89.061801 497.689138 89.168627 497.689138 89.28 
C 497.689138 89.391373 497.733387 89.498199 497.81214 89.576951 
C 497.890892 89.655704 497.997718 89.699953 498.109091 89.699953 
z
" clip-path="url(#pbf8b369759)" style="fill: #4cc26c; stroke: #4cc26c"/>
    <path d="M 196.06375 338.414142 
C 196.360633 338.414142 196.645396 338.296189 196.855323 338.086261 
C 197.065251 337.876334 197.183203 337.591571 197.183203 337.294688 
C 197.183203 336.997806 197.065251 336.713043 196.855323 336.503116 
C 196.645396 336.293188 196.360633 336.175235 196.06375 336.175235 
C 195.766868 336.175235 195.482105 336.293188 195.272177 336.503116 
C 195.06225 336.713043 194.944297 336.997806 194.944297 337.294688 
C 194.944297 337.591571 195.06225 337.876334 195.272177 338.086261 
C 195.482105 338.296189 195.766868 338.414142 196.06375 338.414142 
z
" clip-path="url(#pbf8b369759)" style="fill: #32b67a; stroke: #32b67a"/>
    <path d="M 195.20129 266.101864 
C 195.514482 266.101864 195.814888 265.977431 196.036348 265.755971 
C 196.257808 265.534511 196.38224 265.234105 196.38224 264.920913 
C 196.38224 264.607722 196.257808 264.307315 196.036348 264.085855 
C 195.814888 263.864395 195.514482 263.739963 195.20129 263.739963 
C 194.888098 263.739963 194.587692 263.864395 194.366232 264.085855 
C 194.144772 264.307315 194.020339 264.607722 194.020339 264.920913 
C 194.020339 265.234105 194.144772 265.534511 194.366232 265.755971 
C 194.587692 265.977431 194.888098 266.101864 195.20129 266.101864 
z
" clip-path="url(#pbf8b369759)" style="fill: #a2da37; stroke: #a2da37"/>
    <path d="M 476.475523 150.203228 
C 476.734827 150.203228 476.983544 150.100206 477.166899 149.916851 
C 477.350254 149.733496 477.453276 149.484778 477.453276 149.225475 
C 477.453276 148.966172 477.350254 148.717454 477.166899 148.534099 
C 476.983544 148.350744 476.734827 148.247722 476.475523 148.247722 
C 476.21622 148.247722 475.967503 148.350744 475.784148 148.534099 
C 475.600793 148.717454 475.497771 148.966172 475.497771 149.225475 
C 475.497771 149.484778 475.600793 149.733496 475.784148 149.916851 
C 475.967503 150.100206 476.21622 150.203228 476.475523 150.203228 
z
" clip-path="url(#pbf8b369759)" style="fill: #21918c; stroke: #21918c"/>
    <path d="M 277.734517 240.308269 
C 278.561275 240.308269 279.354282 239.979795 279.938888 239.395189 
C 280.523494 238.810583 280.851968 238.017576 280.851968 237.190818 
C 280.851968 236.36406 280.523494 235.571053 279.938888 234.986447 
C 279.354282 234.401841 278.561275 234.073367 277.734517 234.073367 
C 276.907759 234.073367 276.114752 234.401841 275.530146 234.986447 
C 274.94554 235.571053 274.617066 236.36406 274.617066 237.190818 
C 274.617066 238.017576 274.94554 238.810583 275.530146 239.395189 
C 276.114752 239.979795 276.907759 240.308269 277.734517 240.308269 
z
" clip-path="url(#pbf8b369759)" style="fill: #1f9a8a; stroke: #1f9a8a"/>
    <path d="M 212.849479 138.284426 
C 213.521243 138.284426 214.165584 138.017532 214.640593 137.542523 
C 215.115602 137.067514 215.382497 136.423173 215.382497 135.751409 
C 215.382497 135.079645 215.115602 134.435304 214.640593 133.960295 
C 214.165584 133.485286 213.521243 133.218391 212.849479 133.218391 
C 212.177715 133.218391 211.533374 133.485286 211.058365 133.960295 
C 210.583356 134.435304 210.316462 135.079645 210.316462 135.751409 
C 210.316462 136.423173 210.583356 137.067514 211.058365 137.542523 
C 211.533374 138.017532 212.177715 138.284426 212.849479 138.284426 
z
" clip-path="url(#pbf8b369759)" style="fill: #35b779; stroke: #35b779"/>
    <path d="M 159.896854 256.198001 
C 160.383541 256.198001 160.850361 256.004638 161.194501 255.660498 
C 161.53864 255.316358 161.732003 254.849539 161.732003 254.362851 
C 161.732003 253.876164 161.53864 253.409344 161.194501 253.065205 
C 160.850361 252.721065 160.383541 252.527702 159.896854 252.527702 
C 159.410167 252.527702 158.943347 252.721065 158.599207 253.065205 
C 158.255067 253.409344 158.061704 253.876164 158.061704 254.362851 
C 158.061704 254.849539 158.255067 255.316358 158.599207 255.660498 
C 158.943347 256.004638 159.410167 256.198001 159.896854 256.198001 
z
" clip-path="url(#pbf8b369759)" style="fill: #a8db34; stroke: #a8db34"/>
    <path d="M 194.15454 201.800209 
C 194.288164 201.800209 194.416333 201.74712 194.51082 201.652633 
C 194.605306 201.558147 194.658396 201.429977 194.658396 201.296353 
C 194.658396 201.162729 194.605306 201.03456 194.51082 200.940073 
C 194.416333 200.845587 194.288164 200.792497 194.15454 200.792497 
C 194.020916 200.792497 193.892746 200.845587 193.79826 200.940073 
C 193.703773 201.03456 193.650684 201.162729 193.650684 201.296353 
C 193.650684 201.429977 193.703773 201.558147 193.79826 201.652633 
C 193.892746 201.74712 194.020916 201.800209 194.15454 201.800209 
z
" clip-path="url(#pbf8b369759)" style="fill: #440154; stroke: #440154"/>
    <path d="M 141.872124 478.706014 
C 142.569532 478.706014 143.238469 478.428931 143.73161 477.93579 
C 144.224752 477.442648 144.501835 476.773711 144.501835 476.076304 
C 144.501835 475.378897 144.224752 474.709959 143.73161 474.216818 
C 143.238469 473.723676 142.569532 473.446594 141.872124 473.446594 
C 141.174717 473.446594 140.50578 473.723676 140.012638 474.216818 
C 139.519497 474.709959 139.242414 475.378897 139.242414 476.076304 
C 139.242414 476.773711 139.519497 477.442648 140.012638 477.93579 
C 140.50578 478.428931 141.174717 478.706014 141.872124 478.706014 
z
" clip-path="url(#pbf8b369759)" style="fill: #355f8d; stroke: #355f8d"/>
    <path d="M 217.687394 401.586188 
C 218.07391 401.586188 218.444647 401.432623 218.717955 401.159315 
C 218.991263 400.886007 219.144828 400.51527 219.144828 400.128754 
C 219.144828 399.742238 218.991263 399.371501 218.717955 399.098193 
C 218.444647 398.824885 218.07391 398.67132 217.687394 398.67132 
C 217.300878 398.67132 216.930141 398.824885 216.656833 399.098193 
C 216.383524 399.371501 216.22996 399.742238 216.22996 400.128754 
C 216.22996 400.51527 216.383524 400.886007 216.656833 401.159315 
C 216.930141 401.432623 217.300878 401.586188 217.687394 401.586188 
z
" clip-path="url(#pbf8b369759)" style="fill: #1e9b8a; stroke: #1e9b8a"/>
    <path d="M 179.25276 375.920881 
C 179.634919 375.920881 180.001478 375.769048 180.271705 375.49882 
C 180.541932 375.228593 180.693766 374.862035 180.693766 374.479875 
C 180.693766 374.097716 180.541932 373.731158 180.271705 373.46093 
C 180.001478 373.190703 179.634919 373.038869 179.25276 373.038869 
C 178.870601 373.038869 178.504042 373.190703 178.233815 373.46093 
C 177.963588 373.731158 177.811754 374.097716 177.811754 374.479875 
C 177.811754 374.862035 177.963588 375.228593 178.233815 375.49882 
C 178.504042 375.769048 178.870601 375.920881 179.25276 375.920881 
z
" clip-path="url(#pbf8b369759)" style="fill: #39568c; stroke: #39568c"/>
    <path d="M 92.290909 465.037917 
C 93.121085 465.037917 93.917371 464.708084 94.504394 464.121061 
C 95.091417 463.534038 95.42125 462.737752 95.42125 461.907576 
C 95.42125 461.0774 95.091417 460.281114 94.504394 459.69409 
C 93.917371 459.107067 93.121085 458.777235 92.290909 458.777235 
C 91.460733 458.777235 90.664447 459.107067 90.077424 459.69409 
C 89.490401 460.281114 89.160568 461.0774 89.160568 461.907576 
C 89.160568 462.737752 89.490401 463.534038 90.077424 464.121061 
C 90.664447 464.708084 91.460733 465.037917 92.290909 465.037917 
z
" clip-path="url(#pbf8b369759)" style="fill: #95d840; stroke: #95d840"/>
    <path d="M 160.114638 400.873459 
C 160.85337 400.873459 161.561946 400.579958 162.084309 400.057595 
C 162.606671 399.535232 162.900173 398.826657 162.900173 398.087924 
C 162.900173 397.349192 162.606671 396.640616 162.084309 396.118254 
C 161.561946 395.595891 160.85337 395.302389 160.114638 395.302389 
C 159.375905 395.302389 158.66733 395.595891 158.144967 396.118254 
C 157.622604 396.640616 157.329103 397.349192 157.329103 398.087924 
C 157.329103 398.826657 157.622604 399.535232 158.144967 400.057595 
C 158.66733 400.579958 159.375905 400.873459 160.114638 400.873459 
z
" clip-path="url(#pbf8b369759)" style="fill: #3e4c8a; stroke: #3e4c8a"/>
    <path d="M 198.499445 456.465402 
C 199.402413 456.465402 200.268519 456.106649 200.907014 455.468154 
C 201.545508 454.829659 201.904261 453.963553 201.904261 453.060585 
C 201.904261 452.157618 201.545508 451.291511 200.907014 450.653017 
C 200.268519 450.014522 199.402413 449.655769 198.499445 449.655769 
C 197.596477 449.655769 196.730371 450.014522 196.091876 450.653017 
C 195.453382 451.291511 195.094629 452.157618 195.094629 453.060585 
C 195.094629 453.963553 195.453382 454.829659 196.091876 455.468154 
C 196.730371 456.106649 197.596477 456.465402 198.499445 456.465402 
z
" clip-path="url(#pbf8b369759)" style="fill: #8bd646; stroke: #8bd646"/>
    <path d="M 193.224092 380.97077 
C 193.682809 380.97077 194.122799 380.78852 194.447161 380.464158 
C 194.771523 380.139796 194.953773 379.699806 194.953773 379.241089 
C 194.953773 378.782372 194.771523 378.342382 194.447161 378.01802 
C 194.122799 377.693658 193.682809 377.511408 193.224092 377.511408 
C 192.765375 377.511408 192.325385 377.693658 192.001023 378.01802 
C 191.676661 378.342382 191.494411 378.782372 191.494411 379.241089 
C 191.494411 379.699806 191.676661 380.139796 192.001023 380.464158 
C 192.325385 380.78852 192.765375 380.97077 193.224092 380.97077 
z
" clip-path="url(#pbf8b369759)" style="fill: #21908d; stroke: #21908d"/>
    <path d="M 396.058793 232.072744 
C 396.60027 232.072744 397.119643 231.857613 397.502525 231.47473 
C 397.885407 231.091848 398.100539 230.572475 398.100539 230.030998 
C 398.100539 229.489521 397.885407 228.970148 397.502525 228.587266 
C 397.119643 228.204383 396.60027 227.989252 396.058793 227.989252 
C 395.517315 227.989252 394.997943 228.204383 394.61506 228.587266 
C 394.232178 228.970148 394.017047 229.489521 394.017047 230.030998 
C 394.017047 230.572475 394.232178 231.091848 394.61506 231.47473 
C 394.997943 231.857613 395.517315 232.072744 396.058793 232.072744 
z
" clip-path="url(#pbf8b369759)" style="fill: #2f6c8e; stroke: #2f6c8e"/>
    <path d="M 274.965709 343.267868 
C 275.034039 343.267868 275.09958 343.24072 275.147896 343.192404 
C 275.196213 343.144087 275.223361 343.078546 275.223361 343.010216 
C 275.223361 342.941886 275.196213 342.876345 275.147896 342.828029 
C 275.09958 342.779712 275.034039 342.752564 274.965709 342.752564 
C 274.897379 342.752564 274.831838 342.779712 274.783521 342.828029 
C 274.735205 342.876345 274.708057 342.941886 274.708057 343.010216 
C 274.708057 343.078546 274.735205 343.144087 274.783521 343.192404 
C 274.831838 343.24072 274.897379 343.267868 274.965709 343.267868 
z
" clip-path="url(#pbf8b369759)" style="fill: #63cb5f; stroke: #63cb5f"/>
   </g>
   <g id="matplotlib.axis_1">
    <g id="xtick_1">
     <g id="line2d_1">
      <path d="M 117.893883 512.64 
L 117.893883 69.12 
" clip-path="url(#pbf8b369759)" style="fill: none; stroke: #b0b0b0; stroke-width: 0.8; stroke-linecap: square"/>
     </g>
     <g id="line2d_2">
      <defs>
       <path id="m3ea174a041" d="M 0 0 
L 0 3.5 
" style="stroke: #000000; stroke-width: 0.8"/>
      </defs>
      <g>
       <use xlink:href="#m3ea174a041" x="117.893883" y="512.64" style="stroke: #000000; stroke-width: 0.8"/>
      </g>
     </g>
     <g id="text_1">
      <!-- 2 -->
      <g transform="translate(114.712633 527.238438) scale(0.1 -0.1)">
       <defs>
        <path id="DejaVuSans-32" d="M 1228 531 
L 3431 531 
L 3431 0 
L 469 0 
L 469 531 
Q 828 903 1448 1529 
Q 2069 2156 2228 2338 
Q 2531 2678 2651 2914 
Q 2772 3150 2772 3378 
Q 2772 3750 2511 3984 
Q 2250 4219 1831 4219 
Q 1534 4219 1204 4116 
Q 875 4013 500 3803 
L 500 4441 
Q 881 4594 1212 4672 
Q 1544 4750 1819 4750 
Q 2544 4750 2975 4387 
Q 3406 4025 3406 3419 
Q 3406 3131 3298 2873 
Q 3191 2616 2906 2266 
Q 2828 2175 2409 1742 
Q 1991 1309 1228 531 
z
" transform="scale(0.015625)"/>
       </defs>
       <use xlink:href="#DejaVuSans-32"/>
      </g>
     </g>
    </g>
    <g id="xtick_2">
     <g id="line2d_3">
      <path d="M 202.790764 512.64 
L 202.790764 69.12 
" clip-path="url(#pbf8b369759)" style="fill: none; stroke: #b0b0b0; stroke-width: 0.8; stroke-linecap: square"/>
     </g>
     <g id="line2d_4">
      <g>
       <use xlink:href="#m3ea174a041" x="202.790764" y="512.64" style="stroke: #000000; stroke-width: 0.8"/>
      </g>
     </g>
     <g id="text_2">
      <!-- 4 -->
      <g transform="translate(199.609514 527.238438) scale(0.1 -0.1)">
       <defs>
        <path id="DejaVuSans-34" d="M 2419 4116 
L 825 1625 
L 2419 1625 
L 2419 4116 
z
M 2253 4666 
L 3047 4666 
L 3047 1625 
L 3713 1625 
L 3713 1100 
L 3047 1100 
L 3047 0 
L 2419 0 
L 2419 1100 
L 313 1100 
L 313 1709 
L 2253 4666 
z
" transform="scale(0.015625)"/>
       </defs>
       <use xlink:href="#DejaVuSans-34"/>
      </g>
     </g>
    </g>
    <g id="xtick_3">
     <g id="line2d_5">
      <path d="M 287.687644 512.64 
L 287.687644 69.12 
" clip-path="url(#pbf8b369759)" style="fill: none; stroke: #b0b0b0; stroke-width: 0.8; stroke-linecap: square"/>
     </g>
     <g id="line2d_6">
      <g>
       <use xlink:href="#m3ea174a041" x="287.687644" y="512.64" style="stroke: #000000; stroke-width: 0.8"/>
      </g>
     </g>
     <g id="text_3">
      <!-- 6 -->
      <g transform="translate(284.506394 527.238438) scale(0.1 -0.1)">
       <defs>
        <path id="DejaVuSans-36" d="M 2113 2584 
Q 1688 2584 1439 2293 
Q 1191 2003 1191 1497 
Q 1191 994 1439 701 
Q 1688 409 2113 409 
Q 2538 409 2786 701 
Q 3034 994 3034 1497 
Q 3034 2003 2786 2293 
Q 2538 2584 2113 2584 
z
M 3366 4563 
L 3366 3988 
Q 3128 4100 2886 4159 
Q 2644 4219 2406 4219 
Q 1781 4219 1451 3797 
Q 1122 3375 1075 2522 
Q 1259 2794 1537 2939 
Q 1816 3084 2150 3084 
Q 2853 3084 3261 2657 
Q 3669 2231 3669 1497 
Q 3669 778 3244 343 
Q 2819 -91 2113 -91 
Q 1303 -91 875 529 
Q 447 1150 447 2328 
Q 447 3434 972 4092 
Q 1497 4750 2381 4750 
Q 2619 4750 2861 4703 
Q 3103 4656 3366 4563 
z
" transform="scale(0.015625)"/>
       </defs>
       <use xlink:href="#DejaVuSans-36"/>
      </g>
     </g>
    </g>
    <g id="xtick_4">
     <g id="line2d_7">
      <path d="M 372.584525 512.64 
L 372.584525 69.12 
" clip-path="url(#pbf8b369759)" style="fill: none; stroke: #b0b0b0; stroke-width: 0.8; stroke-linecap: square"/>
     </g>
     <g id="line2d_8">
      <g>
       <use xlink:href="#m3ea174a041" x="372.584525" y="512.64" style="stroke: #000000; stroke-width: 0.8"/>
      </g>
     </g>
     <g id="text_4">
      <!-- 8 -->
      <g transform="translate(369.403275 527.238438) scale(0.1 -0.1)">
       <defs>
        <path id="DejaVuSans-38" d="M 2034 2216 
Q 1584 2216 1326 1975 
Q 1069 1734 1069 1313 
Q 1069 891 1326 650 
Q 1584 409 2034 409 
Q 2484 409 2743 651 
Q 3003 894 3003 1313 
Q 3003 1734 2745 1975 
Q 2488 2216 2034 2216 
z
M 1403 2484 
Q 997 2584 770 2862 
Q 544 3141 544 3541 
Q 544 4100 942 4425 
Q 1341 4750 2034 4750 
Q 2731 4750 3128 4425 
Q 3525 4100 3525 3541 
Q 3525 3141 3298 2862 
Q 3072 2584 2669 2484 
Q 3125 2378 3379 2068 
Q 3634 1759 3634 1313 
Q 3634 634 3220 271 
Q 2806 -91 2034 -91 
Q 1263 -91 848 271 
Q 434 634 434 1313 
Q 434 1759 690 2068 
Q 947 2378 1403 2484 
z
M 1172 3481 
Q 1172 3119 1398 2916 
Q 1625 2713 2034 2713 
Q 2441 2713 2670 2916 
Q 2900 3119 2900 3481 
Q 2900 3844 2670 4047 
Q 2441 4250 2034 4250 
Q 1625 4250 1398 4047 
Q 1172 3844 1172 3481 
z
" transform="scale(0.015625)"/>
       </defs>
       <use xlink:href="#DejaVuSans-38"/>
      </g>
     </g>
    </g>
    <g id="xtick_5">
     <g id="line2d_9">
      <path d="M 457.481406 512.64 
L 457.481406 69.12 
" clip-path="url(#pbf8b369759)" style="fill: none; stroke: #b0b0b0; stroke-width: 0.8; stroke-linecap: square"/>
     </g>
     <g id="line2d_10">
      <g>
       <use xlink:href="#m3ea174a041" x="457.481406" y="512.64" style="stroke: #000000; stroke-width: 0.8"/>
      </g>
     </g>
     <g id="text_5">
      <!-- 10 -->
      <g transform="translate(451.118906 527.238438) scale(0.1 -0.1)">
       <defs>
        <path id="DejaVuSans-31" d="M 794 531 
L 1825 531 
L 1825 4091 
L 703 3866 
L 703 4441 
L 1819 4666 
L 2450 4666 
L 2450 531 
L 3481 531 
L 3481 0 
L 794 0 
L 794 531 
z
" transform="scale(0.015625)"/>
        <path id="DejaVuSans-30" d="M 2034 4250 
Q 1547 4250 1301 3770 
Q 1056 3291 1056 2328 
Q 1056 1369 1301 889 
Q 1547 409 2034 409 
Q 2525 409 2770 889 
Q 3016 1369 3016 2328 
Q 3016 3291 2770 3770 
Q 2525 4250 2034 4250 
z
M 2034 4750 
Q 2819 4750 3233 4129 
Q 3647 3509 3647 2328 
Q 3647 1150 3233 529 
Q 2819 -91 2034 -91 
Q 1250 -91 836 529 
Q 422 1150 422 2328 
Q 422 3509 836 4129 
Q 1250 4750 2034 4750 
z
" transform="scale(0.015625)"/>
       </defs>
       <use xlink:href="#DejaVuSans-31"/>
       <use xlink:href="#DejaVuSans-30" x="63.623047"/>
      </g>
     </g>
    </g>
    <g id="text_6">
     <!-- sunlight exposure -->
     <g transform="translate(250.6125 540.916563) scale(0.1 -0.1)">
      <defs>
       <path id="DejaVuSans-73" d="M 2834 3397 
L 2834 2853 
Q 2591 2978 2328 3040 
Q 2066 3103 1784 3103 
Q 1356 3103 1142 2972 
Q 928 2841 928 2578 
Q 928 2378 1081 2264 
Q 1234 2150 1697 2047 
L 1894 2003 
Q 2506 1872 2764 1633 
Q 3022 1394 3022 966 
Q 3022 478 2636 193 
Q 2250 -91 1575 -91 
Q 1294 -91 989 -36 
Q 684 19 347 128 
L 347 722 
Q 666 556 975 473 
Q 1284 391 1588 391 
Q 1994 391 2212 530 
Q 2431 669 2431 922 
Q 2431 1156 2273 1281 
Q 2116 1406 1581 1522 
L 1381 1569 
Q 847 1681 609 1914 
Q 372 2147 372 2553 
Q 372 3047 722 3315 
Q 1072 3584 1716 3584 
Q 2034 3584 2315 3537 
Q 2597 3491 2834 3397 
z
" transform="scale(0.015625)"/>
       <path id="DejaVuSans-75" d="M 544 1381 
L 544 3500 
L 1119 3500 
L 1119 1403 
Q 1119 906 1312 657 
Q 1506 409 1894 409 
Q 2359 409 2629 706 
Q 2900 1003 2900 1516 
L 2900 3500 
L 3475 3500 
L 3475 0 
L 2900 0 
L 2900 538 
Q 2691 219 2414 64 
Q 2138 -91 1772 -91 
Q 1169 -91 856 284 
Q 544 659 544 1381 
z
M 1991 3584 
L 1991 3584 
z
" transform="scale(0.015625)"/>
       <path id="DejaVuSans-6e" d="M 3513 2113 
L 3513 0 
L 2938 0 
L 2938 2094 
Q 2938 2591 2744 2837 
Q 2550 3084 2163 3084 
Q 1697 3084 1428 2787 
Q 1159 2491 1159 1978 
L 1159 0 
L 581 0 
L 581 3500 
L 1159 3500 
L 1159 2956 
Q 1366 3272 1645 3428 
Q 1925 3584 2291 3584 
Q 2894 3584 3203 3211 
Q 3513 2838 3513 2113 
z
" transform="scale(0.015625)"/>
       <path id="DejaVuSans-6c" d="M 603 4863 
L 1178 4863 
L 1178 0 
L 603 0 
L 603 4863 
z
" transform="scale(0.015625)"/>
       <path id="DejaVuSans-69" d="M 603 3500 
L 1178 3500 
L 1178 0 
L 603 0 
L 603 3500 
z
M 603 4863 
L 1178 4863 
L 1178 4134 
L 603 4134 
L 603 4863 
z
" transform="scale(0.015625)"/>
       <path id="DejaVuSans-67" d="M 2906 1791 
Q 2906 2416 2648 2759 
Q 2391 3103 1925 3103 
Q 1463 3103 1205 2759 
Q 947 2416 947 1791 
Q 947 1169 1205 825 
Q 1463 481 1925 481 
Q 2391 481 2648 825 
Q 2906 1169 2906 1791 
z
M 3481 434 
Q 3481 -459 3084 -895 
Q 2688 -1331 1869 -1331 
Q 1566 -1331 1297 -1286 
Q 1028 -1241 775 -1147 
L 775 -588 
Q 1028 -725 1275 -790 
Q 1522 -856 1778 -856 
Q 2344 -856 2625 -561 
Q 2906 -266 2906 331 
L 2906 616 
Q 2728 306 2450 153 
Q 2172 0 1784 0 
Q 1141 0 747 490 
Q 353 981 353 1791 
Q 353 2603 747 3093 
Q 1141 3584 1784 3584 
Q 2172 3584 2450 3431 
Q 2728 3278 2906 2969 
L 2906 3500 
L 3481 3500 
L 3481 434 
z
" transform="scale(0.015625)"/>
       <path id="DejaVuSans-68" d="M 3513 2113 
L 3513 0 
L 2938 0 
L 2938 2094 
Q 2938 2591 2744 2837 
Q 2550 3084 2163 3084 
Q 1697 3084 1428 2787 
Q 1159 2491 1159 1978 
L 1159 0 
L 581 0 
L 581 4863 
L 1159 4863 
L 1159 2956 
Q 1366 3272 1645 3428 
Q 1925 3584 2291 3584 
Q 2894 3584 3203 3211 
Q 3513 2838 3513 2113 
z
" transform="scale(0.015625)"/>
       <path id="DejaVuSans-74" d="M 1172 4494 
L 1172 3500 
L 2356 3500 
L 2356 3053 
L 1172 3053 
L 1172 1153 
Q 1172 725 1289 603 
Q 1406 481 1766 481 
L 2356 481 
L 2356 0 
L 1766 0 
Q 1100 0 847 248 
Q 594 497 594 1153 
L 594 3053 
L 172 3053 
L 172 3500 
L 594 3500 
L 594 4494 
L 1172 4494 
z
" transform="scale(0.015625)"/>
       <path id="DejaVuSans-20" transform="scale(0.015625)"/>
       <path id="DejaVuSans-65" d="M 3597 1894 
L 3597 1613 
L 953 1613 
Q 991 1019 1311 708 
Q 1631 397 2203 397 
Q 2534 397 2845 478 
Q 3156 559 3463 722 
L 3463 178 
Q 3153 47 2828 -22 
Q 2503 -91 2169 -91 
Q 1331 -91 842 396 
Q 353 884 353 1716 
Q 353 2575 817 3079 
Q 1281 3584 2069 3584 
Q 2775 3584 3186 3129 
Q 3597 2675 3597 1894 
z
M 3022 2063 
Q 3016 2534 2758 2815 
Q 2500 3097 2075 3097 
Q 1594 3097 1305 2825 
Q 1016 2553 972 2059 
L 3022 2063 
z
" transform="scale(0.015625)"/>
       <path id="DejaVuSans-78" d="M 3513 3500 
L 2247 1797 
L 3578 0 
L 2900 0 
L 1881 1375 
L 863 0 
L 184 0 
L 1544 1831 
L 300 3500 
L 978 3500 
L 1906 2253 
L 2834 3500 
L 3513 3500 
z
" transform="scale(0.015625)"/>
       <path id="DejaVuSans-70" d="M 1159 525 
L 1159 -1331 
L 581 -1331 
L 581 3500 
L 1159 3500 
L 1159 2969 
Q 1341 3281 1617 3432 
Q 1894 3584 2278 3584 
Q 2916 3584 3314 3078 
Q 3713 2572 3713 1747 
Q 3713 922 3314 415 
Q 2916 -91 2278 -91 
Q 1894 -91 1617 61 
Q 1341 213 1159 525 
z
M 3116 1747 
Q 3116 2381 2855 2742 
Q 2594 3103 2138 3103 
Q 1681 3103 1420 2742 
Q 1159 2381 1159 1747 
Q 1159 1113 1420 752 
Q 1681 391 2138 391 
Q 2594 391 2855 752 
Q 3116 1113 3116 1747 
z
" transform="scale(0.015625)"/>
       <path id="DejaVuSans-6f" d="M 1959 3097 
Q 1497 3097 1228 2736 
Q 959 2375 959 1747 
Q 959 1119 1226 758 
Q 1494 397 1959 397 
Q 2419 397 2687 759 
Q 2956 1122 2956 1747 
Q 2956 2369 2687 2733 
Q 2419 3097 1959 3097 
z
M 1959 3584 
Q 2709 3584 3137 3096 
Q 3566 2609 3566 1747 
Q 3566 888 3137 398 
Q 2709 -91 1959 -91 
Q 1206 -91 779 398 
Q 353 888 353 1747 
Q 353 2609 779 3096 
Q 1206 3584 1959 3584 
z
" transform="scale(0.015625)"/>
       <path id="DejaVuSans-72" d="M 2631 2963 
Q 2534 3019 2420 3045 
Q 2306 3072 2169 3072 
Q 1681 3072 1420 2755 
Q 1159 2438 1159 1844 
L 1159 0 
L 581 0 
L 581 3500 
L 1159 3500 
L 1159 2956 
Q 1341 3275 1631 3429 
Q 1922 3584 2338 3584 
Q 2397 3584 2469 3576 
Q 2541 3569 2628 3553 
L 2631 2963 
z
" transform="scale(0.015625)"/>
      </defs>
      <use xlink:href="#DejaVuSans-73"/>
      <use xlink:href="#DejaVuSans-75" x="52.099609"/>
      <use xlink:href="#DejaVuSans-6e" x="115.478516"/>
      <use xlink:href="#DejaVuSans-6c" x="178.857422"/>
      <use xlink:href="#DejaVuSans-69" x="206.640625"/>
      <use xlink:href="#DejaVuSans-67" x="234.423828"/>
      <use xlink:href="#DejaVuSans-68" x="297.900391"/>
      <use xlink:href="#DejaVuSans-74" x="361.279297"/>
      <use xlink:href="#DejaVuSans-20" x="400.488281"/>
      <use xlink:href="#DejaVuSans-65" x="432.275391"/>
      <use xlink:href="#DejaVuSans-78" x="492.048828"/>
      <use xlink:href="#DejaVuSans-70" x="551.228516"/>
      <use xlink:href="#DejaVuSans-6f" x="614.705078"/>
      <use xlink:href="#DejaVuSans-73" x="675.886719"/>
      <use xlink:href="#DejaVuSans-75" x="727.986328"/>
      <use xlink:href="#DejaVuSans-72" x="791.365234"/>
      <use xlink:href="#DejaVuSans-65" x="830.228516"/>
     </g>
    </g>
   </g>
   <g id="matplotlib.axis_2">
    <g id="ytick_1">
     <g id="line2d_11">
      <path d="M 72 495.190794 
L 518.4 495.190794 
" clip-path="url(#pbf8b369759)" style="fill: none; stroke: #b0b0b0; stroke-width: 0.8; stroke-linecap: square"/>
     </g>
     <g id="line2d_12">
      <defs>
       <path id="m849345c5a4" d="M 0 0 
L -3.5 0 
" style="stroke: #000000; stroke-width: 0.8"/>
      </defs>
      <g>
       <use xlink:href="#m849345c5a4" x="72" y="495.190794" style="stroke: #000000; stroke-width: 0.8"/>
      </g>
     </g>
     <g id="text_7">
      <!-- 2 -->
      <g transform="translate(58.6375 498.990013) scale(0.1 -0.1)">
       <use xlink:href="#DejaVuSans-32"/>
      </g>
     </g>
    </g>
    <g id="ytick_2">
     <g id="line2d_13">
      <path d="M 72 425.669981 
L 518.4 425.669981 
" clip-path="url(#pbf8b369759)" style="fill: none; stroke: #b0b0b0; stroke-width: 0.8; stroke-linecap: square"/>
     </g>
     <g id="line2d_14">
      <g>
       <use xlink:href="#m849345c5a4" x="72" y="425.669981" style="stroke: #000000; stroke-width: 0.8"/>
      </g>
     </g>
     <g id="text_8">
      <!-- 3 -->
      <g transform="translate(58.6375 429.4692) scale(0.1 -0.1)">
       <defs>
        <path id="DejaVuSans-33" d="M 2597 2516 
Q 3050 2419 3304 2112 
Q 3559 1806 3559 1356 
Q 3559 666 3084 287 
Q 2609 -91 1734 -91 
Q 1441 -91 1130 -33 
Q 819 25 488 141 
L 488 750 
Q 750 597 1062 519 
Q 1375 441 1716 441 
Q 2309 441 2620 675 
Q 2931 909 2931 1356 
Q 2931 1769 2642 2001 
Q 2353 2234 1838 2234 
L 1294 2234 
L 1294 2753 
L 1863 2753 
Q 2328 2753 2575 2939 
Q 2822 3125 2822 3475 
Q 2822 3834 2567 4026 
Q 2313 4219 1838 4219 
Q 1578 4219 1281 4162 
Q 984 4106 628 3988 
L 628 4550 
Q 988 4650 1302 4700 
Q 1616 4750 1894 4750 
Q 2613 4750 3031 4423 
Q 3450 4097 3450 3541 
Q 3450 3153 3228 2886 
Q 3006 2619 2597 2516 
z
" transform="scale(0.015625)"/>
       </defs>
       <use xlink:href="#DejaVuSans-33"/>
      </g>
     </g>
    </g>
    <g id="ytick_3">
     <g id="line2d_15">
      <path d="M 72 356.149168 
L 518.4 356.149168 
" clip-path="url(#pbf8b369759)" style="fill: none; stroke: #b0b0b0; stroke-width: 0.8; stroke-linecap: square"/>
     </g>
     <g id="line2d_16">
      <g>
       <use xlink:href="#m849345c5a4" x="72" y="356.149168" style="stroke: #000000; stroke-width: 0.8"/>
      </g>
     </g>
     <g id="text_9">
      <!-- 4 -->
      <g transform="translate(58.6375 359.948387) scale(0.1 -0.1)">
       <use xlink:href="#DejaVuSans-34"/>
      </g>
     </g>
    </g>
    <g id="ytick_4">
     <g id="line2d_17">
      <path d="M 72 286.628355 
L 518.4 286.628355 
" clip-path="url(#pbf8b369759)" style="fill: none; stroke: #b0b0b0; stroke-width: 0.8; stroke-linecap: square"/>
     </g>
     <g id="line2d_18">
      <g>
       <use xlink:href="#m849345c5a4" x="72" y="286.628355" style="stroke: #000000; stroke-width: 0.8"/>
      </g>
     </g>
     <g id="text_10">
      <!-- 5 -->
      <g transform="translate(58.6375 290.427574) scale(0.1 -0.1)">
       <defs>
        <path id="DejaVuSans-35" d="M 691 4666 
L 3169 4666 
L 3169 4134 
L 1269 4134 
L 1269 2991 
Q 1406 3038 1543 3061 
Q 1681 3084 1819 3084 
Q 2600 3084 3056 2656 
Q 3513 2228 3513 1497 
Q 3513 744 3044 326 
Q 2575 -91 1722 -91 
Q 1428 -91 1123 -41 
Q 819 9 494 109 
L 494 744 
Q 775 591 1075 516 
Q 1375 441 1709 441 
Q 2250 441 2565 725 
Q 2881 1009 2881 1497 
Q 2881 1984 2565 2268 
Q 2250 2553 1709 2553 
Q 1456 2553 1204 2497 
Q 953 2441 691 2322 
L 691 4666 
z
" transform="scale(0.015625)"/>
       </defs>
       <use xlink:href="#DejaVuSans-35"/>
      </g>
     </g>
    </g>
    <g id="ytick_5">
     <g id="line2d_19">
      <path d="M 72 217.107542 
L 518.4 217.107542 
" clip-path="url(#pbf8b369759)" style="fill: none; stroke: #b0b0b0; stroke-width: 0.8; stroke-linecap: square"/>
     </g>
     <g id="line2d_20">
      <g>
       <use xlink:href="#m849345c5a4" x="72" y="217.107542" style="stroke: #000000; stroke-width: 0.8"/>
      </g>
     </g>
     <g id="text_11">
      <!-- 6 -->
      <g transform="translate(58.6375 220.906761) scale(0.1 -0.1)">
       <use xlink:href="#DejaVuSans-36"/>
      </g>
     </g>
    </g>
    <g id="ytick_6">
     <g id="line2d_21">
      <path d="M 72 147.586729 
L 518.4 147.586729 
" clip-path="url(#pbf8b369759)" style="fill: none; stroke: #b0b0b0; stroke-width: 0.8; stroke-linecap: square"/>
     </g>
     <g id="line2d_22">
      <g>
       <use xlink:href="#m849345c5a4" x="72" y="147.586729" style="stroke: #000000; stroke-width: 0.8"/>
      </g>
     </g>
     <g id="text_12">
      <!-- 7 -->
      <g transform="translate(58.6375 151.385948) scale(0.1 -0.1)">
       <defs>
        <path id="DejaVuSans-37" d="M 525 4666 
L 3525 4666 
L 3525 4397 
L 1831 0 
L 1172 0 
L 2766 4134 
L 525 4134 
L 525 4666 
z
" transform="scale(0.015625)"/>
       </defs>
       <use xlink:href="#DejaVuSans-37"/>
      </g>
     </g>
    </g>
    <g id="ytick_7">
     <g id="line2d_23">
      <path d="M 72 78.065916 
L 518.4 78.065916 
" clip-path="url(#pbf8b369759)" style="fill: none; stroke: #b0b0b0; stroke-width: 0.8; stroke-linecap: square"/>
     </g>
     <g id="line2d_24">
      <g>
       <use xlink:href="#m849345c5a4" x="72" y="78.065916" style="stroke: #000000; stroke-width: 0.8"/>
      </g>
     </g>
     <g id="text_13">
      <!-- 8 -->
      <g transform="translate(58.6375 81.865135) scale(0.1 -0.1)">
       <use xlink:href="#DejaVuSans-38"/>
      </g>
     </g>
    </g>
    <g id="text_14">
     <!-- photosynthesis -->
     <g transform="translate(52.557812 328.838594) rotate(-90) scale(0.1 -0.1)">
      <defs>
       <path id="DejaVuSans-79" d="M 2059 -325 
Q 1816 -950 1584 -1140 
Q 1353 -1331 966 -1331 
L 506 -1331 
L 506 -850 
L 844 -850 
Q 1081 -850 1212 -737 
Q 1344 -625 1503 -206 
L 1606 56 
L 191 3500 
L 800 3500 
L 1894 763 
L 2988 3500 
L 3597 3500 
L 2059 -325 
z
" transform="scale(0.015625)"/>
      </defs>
      <use xlink:href="#DejaVuSans-70"/>
      <use xlink:href="#DejaVuSans-68" x="63.476562"/>
      <use xlink:href="#DejaVuSans-6f" x="126.855469"/>
      <use xlink:href="#DejaVuSans-74" x="188.037109"/>
      <use xlink:href="#DejaVuSans-6f" x="227.246094"/>
      <use xlink:href="#DejaVuSans-73" x="288.427734"/>
      <use xlink:href="#DejaVuSans-79" x="340.527344"/>
      <use xlink:href="#DejaVuSans-6e" x="399.707031"/>
      <use xlink:href="#DejaVuSans-74" x="463.085938"/>
      <use xlink:href="#DejaVuSans-68" x="502.294922"/>
      <use xlink:href="#DejaVuSans-65" x="565.673828"/>
      <use xlink:href="#DejaVuSans-73" x="627.197266"/>
      <use xlink:href="#DejaVuSans-69" x="679.296875"/>
      <use xlink:href="#DejaVuSans-73" x="707.080078"/>
     </g>
    </g>
   </g>
   <g id="patch_3">
    <path d="M 72 512.64 
L 72 69.12 
" style="fill: none; stroke: #000000; stroke-width: 0.8; stroke-linejoin: miter; stroke-linecap: square"/>
   </g>
   <g id="patch_4">
    <path d="M 518.4 512.64 
L 518.4 69.12 
" style="fill: none; stroke: #000000; stroke-width: 0.8; stroke-linejoin: miter; stroke-linecap: square"/>
   </g>
   <g id="patch_5">
    <path d="M 72 512.64 
L 518.4 512.64 
" style="fill: none; stroke: #000000; stroke-width: 0.8; stroke-linejoin: miter; stroke-linecap: square"/>
   </g>
   <g id="patch_6">
    <path d="M 72 69.12 
L 518.4 69.12 
" style="fill: none; stroke: #000000; stroke-width: 0.8; stroke-linejoin: miter; stroke-linecap: square"/>
   </g>
   <g id="text_15">
    <!-- Graph Representing Photosynthesis versus Sunlight Exposure  -->
    <g transform="translate(139.260156 51.922187) scale(0.1 -0.1)">
     <defs>
      <path id="DejaVuSans-47" d="M 3809 666 
L 3809 1919 
L 2778 1919 
L 2778 2438 
L 4434 2438 
L 4434 434 
Q 4069 175 3628 42 
Q 3188 -91 2688 -91 
Q 1594 -91 976 548 
Q 359 1188 359 2328 
Q 359 3472 976 4111 
Q 1594 4750 2688 4750 
Q 3144 4750 3555 4637 
Q 3966 4525 4313 4306 
L 4313 3634 
Q 3963 3931 3569 4081 
Q 3175 4231 2741 4231 
Q 1884 4231 1454 3753 
Q 1025 3275 1025 2328 
Q 1025 1384 1454 906 
Q 1884 428 2741 428 
Q 3075 428 3337 486 
Q 3600 544 3809 666 
z
" transform="scale(0.015625)"/>
      <path id="DejaVuSans-61" d="M 2194 1759 
Q 1497 1759 1228 1600 
Q 959 1441 959 1056 
Q 959 750 1161 570 
Q 1363 391 1709 391 
Q 2188 391 2477 730 
Q 2766 1069 2766 1631 
L 2766 1759 
L 2194 1759 
z
M 3341 1997 
L 3341 0 
L 2766 0 
L 2766 531 
Q 2569 213 2275 61 
Q 1981 -91 1556 -91 
Q 1019 -91 701 211 
Q 384 513 384 1019 
Q 384 1609 779 1909 
Q 1175 2209 1959 2209 
L 2766 2209 
L 2766 2266 
Q 2766 2663 2505 2880 
Q 2244 3097 1772 3097 
Q 1472 3097 1187 3025 
Q 903 2953 641 2809 
L 641 3341 
Q 956 3463 1253 3523 
Q 1550 3584 1831 3584 
Q 2591 3584 2966 3190 
Q 3341 2797 3341 1997 
z
" transform="scale(0.015625)"/>
      <path id="DejaVuSans-52" d="M 2841 2188 
Q 3044 2119 3236 1894 
Q 3428 1669 3622 1275 
L 4263 0 
L 3584 0 
L 2988 1197 
Q 2756 1666 2539 1819 
Q 2322 1972 1947 1972 
L 1259 1972 
L 1259 0 
L 628 0 
L 628 4666 
L 2053 4666 
Q 2853 4666 3247 4331 
Q 3641 3997 3641 3322 
Q 3641 2881 3436 2590 
Q 3231 2300 2841 2188 
z
M 1259 4147 
L 1259 2491 
L 2053 2491 
Q 2509 2491 2742 2702 
Q 2975 2913 2975 3322 
Q 2975 3731 2742 3939 
Q 2509 4147 2053 4147 
L 1259 4147 
z
" transform="scale(0.015625)"/>
      <path id="DejaVuSans-50" d="M 1259 4147 
L 1259 2394 
L 2053 2394 
Q 2494 2394 2734 2622 
Q 2975 2850 2975 3272 
Q 2975 3691 2734 3919 
Q 2494 4147 2053 4147 
L 1259 4147 
z
M 628 4666 
L 2053 4666 
Q 2838 4666 3239 4311 
Q 3641 3956 3641 3272 
Q 3641 2581 3239 2228 
Q 2838 1875 2053 1875 
L 1259 1875 
L 1259 0 
L 628 0 
L 628 4666 
z
" transform="scale(0.015625)"/>
      <path id="DejaVuSans-76" d="M 191 3500 
L 800 3500 
L 1894 563 
L 2988 3500 
L 3597 3500 
L 2284 0 
L 1503 0 
L 191 3500 
z
" transform="scale(0.015625)"/>
      <path id="DejaVuSans-53" d="M 3425 4513 
L 3425 3897 
Q 3066 4069 2747 4153 
Q 2428 4238 2131 4238 
Q 1616 4238 1336 4038 
Q 1056 3838 1056 3469 
Q 1056 3159 1242 3001 
Q 1428 2844 1947 2747 
L 2328 2669 
Q 3034 2534 3370 2195 
Q 3706 1856 3706 1288 
Q 3706 609 3251 259 
Q 2797 -91 1919 -91 
Q 1588 -91 1214 -16 
Q 841 59 441 206 
L 441 856 
Q 825 641 1194 531 
Q 1563 422 1919 422 
Q 2459 422 2753 634 
Q 3047 847 3047 1241 
Q 3047 1584 2836 1778 
Q 2625 1972 2144 2069 
L 1759 2144 
Q 1053 2284 737 2584 
Q 422 2884 422 3419 
Q 422 4038 858 4394 
Q 1294 4750 2059 4750 
Q 2388 4750 2728 4690 
Q 3069 4631 3425 4513 
z
" transform="scale(0.015625)"/>
      <path id="DejaVuSans-45" d="M 628 4666 
L 3578 4666 
L 3578 4134 
L 1259 4134 
L 1259 2753 
L 3481 2753 
L 3481 2222 
L 1259 2222 
L 1259 531 
L 3634 531 
L 3634 0 
L 628 0 
L 628 4666 
z
" transform="scale(0.015625)"/>
     </defs>
     <use xlink:href="#DejaVuSans-47"/>
     <use xlink:href="#DejaVuSans-72" x="77.490234"/>
     <use xlink:href="#DejaVuSans-61" x="118.603516"/>
     <use xlink:href="#DejaVuSans-70" x="179.882812"/>
     <use xlink:href="#DejaVuSans-68" x="243.359375"/>
     <use xlink:href="#DejaVuSans-20" x="306.738281"/>
     <use xlink:href="#DejaVuSans-52" x="338.525391"/>
     <use xlink:href="#DejaVuSans-65" x="403.507812"/>
     <use xlink:href="#DejaVuSans-70" x="465.03125"/>
     <use xlink:href="#DejaVuSans-72" x="528.507812"/>
     <use xlink:href="#DejaVuSans-65" x="567.371094"/>
     <use xlink:href="#DejaVuSans-73" x="628.894531"/>
     <use xlink:href="#DejaVuSans-65" x="680.994141"/>
     <use xlink:href="#DejaVuSans-6e" x="742.517578"/>
     <use xlink:href="#DejaVuSans-74" x="805.896484"/>
     <use xlink:href="#DejaVuSans-69" x="845.105469"/>
     <use xlink:href="#DejaVuSans-6e" x="872.888672"/>
     <use xlink:href="#DejaVuSans-67" x="936.267578"/>
     <use xlink:href="#DejaVuSans-20" x="999.744141"/>
     <use xlink:href="#DejaVuSans-50" x="1031.53125"/>
     <use xlink:href="#DejaVuSans-68" x="1091.833984"/>
     <use xlink:href="#DejaVuSans-6f" x="1155.212891"/>
     <use xlink:href="#DejaVuSans-74" x="1216.394531"/>
     <use xlink:href="#DejaVuSans-6f" x="1255.603516"/>
     <use xlink:href="#DejaVuSans-73" x="1316.785156"/>
     <use xlink:href="#DejaVuSans-79" x="1368.884766"/>
     <use xlink:href="#DejaVuSans-6e" x="1428.064453"/>
     <use xlink:href="#DejaVuSans-74" x="1491.443359"/>
     <use xlink:href="#DejaVuSans-68" x="1530.652344"/>
     <use xlink:href="#DejaVuSans-65" x="1594.03125"/>
     <use xlink:href="#DejaVuSans-73" x="1655.554688"/>
     <use xlink:href="#DejaVuSans-69" x="1707.654297"/>
     <use xlink:href="#DejaVuSans-73" x="1735.4375"/>
     <use xlink:href="#DejaVuSans-20" x="1787.537109"/>
     <use xlink:href="#DejaVuSans-76" x="1819.324219"/>
     <use xlink:href="#DejaVuSans-65" x="1878.503906"/>
     <use xlink:href="#DejaVuSans-72" x="1940.027344"/>
     <use xlink:href="#DejaVuSans-73" x="1981.140625"/>
     <use xlink:href="#DejaVuSans-75" x="2033.240234"/>
     <use xlink:href="#DejaVuSans-73" x="2096.619141"/>
     <use xlink:href="#DejaVuSans-20" x="2148.71875"/>
     <use xlink:href="#DejaVuSans-53" x="2180.505859"/>
     <use xlink:href="#DejaVuSans-75" x="2243.982422"/>
     <use xlink:href="#DejaVuSans-6e" x="2307.361328"/>
     <use xlink:href="#DejaVuSans-6c" x="2370.740234"/>
     <use xlink:href="#DejaVuSans-69" x="2398.523438"/>
     <use xlink:href="#DejaVuSans-67" x="2426.306641"/>
     <use xlink:href="#DejaVuSans-68" x="2489.783203"/>
     <use xlink:href="#DejaVuSans-74" x="2553.162109"/>
     <use xlink:href="#DejaVuSans-20" x="2592.371094"/>
     <use xlink:href="#DejaVuSans-45" x="2624.158203"/>
     <use xlink:href="#DejaVuSans-78" x="2687.341797"/>
     <use xlink:href="#DejaVuSans-70" x="2746.521484"/>
     <use xlink:href="#DejaVuSans-6f" x="2809.998047"/>
     <use xlink:href="#DejaVuSans-73" x="2871.179688"/>
     <use xlink:href="#DejaVuSans-75" x="2923.279297"/>
     <use xlink:href="#DejaVuSans-72" x="2986.658203"/>
     <use xlink:href="#DejaVuSans-65" x="3025.521484"/>
     <use xlink:href="#DejaVuSans-20" x="3087.044922"/>
    </g>
    <!--  -->
    <g transform="translate(295.2 63.12) scale(0.1 -0.1)"/>
   </g>
  </g>
 </g>
 <defs>
  <clipPath id="pbf8b369759">
   <rect x="72" y="69.12" width="446.4" height="443.52"/>
  </clipPath>
 </defs>
</svg>
