<?xml version="1.0" encoding="utf-8" standalone="no"?>
<!DOCTYPE svg PUBLIC "-//W3C//DTD SVG 1.1//EN"
  "http://www.w3.org/Graphics/SVG/1.1/DTD/svg11.dtd">
<svg xmlns:xlink="http://www.w3.org/1999/xlink" width="1800pt" height="1080pt" viewBox="0 0 1800 1080" xmlns="http://www.w3.org/2000/svg" version="1.1">
 <metadata>
  <rdf:RDF xmlns:dc="http://purl.org/dc/elements/1.1/" xmlns:cc="http://creativecommons.org/ns#" xmlns:rdf="http://www.w3.org/1999/02/22-rdf-syntax-ns#">
   <cc:Work>
    <dc:type rdf:resource="http://purl.org/dc/dcmitype/StillImage"/>
    <dc:date>2023-03-24T13:44:21.460066</dc:date>
    <dc:format>image/svg+xml</dc:format>
    <dc:creator>
     <cc:Agent>
      <dc:title>Matplotlib v3.7.1, https://matplotlib.org/</dc:title>
     </cc:Agent>
    </dc:creator>
   </cc:Work>
  </rdf:RDF>
 </metadata>
 <defs>
  <style type="text/css">*{stroke-linejoin: round; stroke-linecap: butt}</style>
 </defs>
 <g id="figure_1">
  <g id="patch_1">
   <path d="M 0 1080 
L 1800 1080 
L 1800 0 
L 0 0 
z
" style="fill: #ffffff"/>
  </g>
  <g id="axes_1">
   <g id="patch_2">
    <path d="M 225 961.2 
L 1620 961.2 
L 1620 129.6 
L 225 129.6 
z
" style="fill: #ffffff"/>
   </g>
   <g id="matplotlib.axis_1">
    <g id="xtick_1">
     <g id="line2d_1">
      <path d="M 288.409091 961.2 
L 288.409091 129.6 
" clip-path="url(#p6b8449a0bb)" style="fill: none; stroke: #b0b0b0; stroke-width: 0.8; stroke-linecap: square"/>
     </g>
     <g id="line2d_2">
      <defs>
       <path id="mf59da77c5e" d="M 0 0 
L 0 3.5 
" style="stroke: #000000; stroke-width: 0.8"/>
      </defs>
      <g>
       <use xlink:href="#mf59da77c5e" x="288.409091" y="545.4" style="stroke: #000000; stroke-width: 0.8"/>
      </g>
     </g>
     <g id="text_1">
      <!-- -2$\pi$ -->
      <g transform="translate(292.548153 576.4) rotate(-90) scale(0.15 -0.15)">
       <defs>
        <path id="DejaVuSans-2d" d="M 313 2009 
L 1997 2009 
L 1997 1497 
L 313 1497 
L 313 2009 
z
" transform="scale(0.015625)"/>
        <path id="DejaVuSans-32" d="M 1228 531 
L 3431 531 
L 3431 0 
L 469 0 
L 469 531 
Q 828 903 1448 1529 
Q 2069 2156 2228 2338 
Q 2531 2678 2651 2914 
Q 2772 3150 2772 3378 
Q 2772 3750 2511 3984 
Q 2250 4219 1831 4219 
Q 1534 4219 1204 4116 
Q 875 4013 500 3803 
L 500 4441 
Q 881 4594 1212 4672 
Q 1544 4750 1819 4750 
Q 2544 4750 2975 4387 
Q 3406 4025 3406 3419 
Q 3406 3131 3298 2873 
Q 3191 2616 2906 2266 
Q 2828 2175 2409 1742 
Q 1991 1309 1228 531 
z
" transform="scale(0.015625)"/>
        <path id="DejaVuSans-Oblique-3c0" d="M 584 3500 
L 3938 3500 
L 3825 2925 
L 3384 2925 
L 2966 775 
Q 2922 550 2981 450 
Q 3038 353 3209 353 
Q 3256 353 3325 363 
Q 3397 369 3419 372 
L 3338 -44 
Q 3222 -84 3103 -103 
Q 2981 -122 2866 -122 
Q 2491 -122 2388 81 
Q 2284 288 2391 838 
L 2797 2925 
L 1506 2925 
L 938 0 
L 350 0 
L 919 2925 
L 472 2925 
L 584 3500 
z
" transform="scale(0.015625)"/>
       </defs>
       <use xlink:href="#DejaVuSans-2d" transform="translate(0 0.78125)"/>
       <use xlink:href="#DejaVuSans-32" transform="translate(36.083984 0.78125)"/>
       <use xlink:href="#DejaVuSans-Oblique-3c0" transform="translate(99.707031 0.78125)"/>
      </g>
     </g>
    </g>
    <g id="xtick_2">
     <g id="line2d_3">
      <path d="M 330.681818 961.2 
L 330.681818 129.6 
" clip-path="url(#p6b8449a0bb)" style="fill: none; stroke: #b0b0b0; stroke-width: 0.8; stroke-linecap: square"/>
     </g>
     <g id="line2d_4">
      <g>
       <use xlink:href="#mf59da77c5e" x="330.681818" y="545.4" style="stroke: #000000; stroke-width: 0.8"/>
      </g>
     </g>
     <g id="text_2">
      <!-- -11$\pi$/6 -->
      <g transform="translate(334.820881 600.55) rotate(-90) scale(0.15 -0.15)">
       <defs>
        <path id="DejaVuSans-31" d="M 794 531 
L 1825 531 
L 1825 4091 
L 703 3866 
L 703 4441 
L 1819 4666 
L 2450 4666 
L 2450 531 
L 3481 531 
L 3481 0 
L 794 0 
L 794 531 
z
" transform="scale(0.015625)"/>
        <path id="DejaVuSans-2f" d="M 1625 4666 
L 2156 4666 
L 531 -594 
L 0 -594 
L 1625 4666 
z
" transform="scale(0.015625)"/>
        <path id="DejaVuSans-36" d="M 2113 2584 
Q 1688 2584 1439 2293 
Q 1191 2003 1191 1497 
Q 1191 994 1439 701 
Q 1688 409 2113 409 
Q 2538 409 2786 701 
Q 3034 994 3034 1497 
Q 3034 2003 2786 2293 
Q 2538 2584 2113 2584 
z
M 3366 4563 
L 3366 3988 
Q 3128 4100 2886 4159 
Q 2644 4219 2406 4219 
Q 1781 4219 1451 3797 
Q 1122 3375 1075 2522 
Q 1259 2794 1537 2939 
Q 1816 3084 2150 3084 
Q 2853 3084 3261 2657 
Q 3669 2231 3669 1497 
Q 3669 778 3244 343 
Q 2819 -91 2113 -91 
Q 1303 -91 875 529 
Q 447 1150 447 2328 
Q 447 3434 972 4092 
Q 1497 4750 2381 4750 
Q 2619 4750 2861 4703 
Q 3103 4656 3366 4563 
z
" transform="scale(0.015625)"/>
       </defs>
       <use xlink:href="#DejaVuSans-2d" transform="translate(0 0.78125)"/>
       <use xlink:href="#DejaVuSans-31" transform="translate(36.083984 0.78125)"/>
       <use xlink:href="#DejaVuSans-31" transform="translate(99.707031 0.78125)"/>
       <use xlink:href="#DejaVuSans-Oblique-3c0" transform="translate(163.330078 0.78125)"/>
       <use xlink:href="#DejaVuSans-2f" transform="translate(223.535156 0.78125)"/>
       <use xlink:href="#DejaVuSans-36" transform="translate(257.226562 0.78125)"/>
      </g>
     </g>
    </g>
    <g id="xtick_3">
     <g id="line2d_5">
      <path d="M 351.818182 961.2 
L 351.818182 129.6 
" clip-path="url(#p6b8449a0bb)" style="fill: none; stroke: #b0b0b0; stroke-width: 0.8; stroke-linecap: square"/>
     </g>
     <g id="line2d_6">
      <g>
       <use xlink:href="#mf59da77c5e" x="351.818182" y="545.4" style="stroke: #000000; stroke-width: 0.8"/>
      </g>
     </g>
     <g id="text_3">
      <!-- -7$\pi$/4 -->
      <g transform="translate(355.957244 591.1) rotate(-90) scale(0.15 -0.15)">
       <defs>
        <path id="DejaVuSans-37" d="M 525 4666 
L 3525 4666 
L 3525 4397 
L 1831 0 
L 1172 0 
L 2766 4134 
L 525 4134 
L 525 4666 
z
" transform="scale(0.015625)"/>
        <path id="DejaVuSans-34" d="M 2419 4116 
L 825 1625 
L 2419 1625 
L 2419 4116 
z
M 2253 4666 
L 3047 4666 
L 3047 1625 
L 3713 1625 
L 3713 1100 
L 3047 1100 
L 3047 0 
L 2419 0 
L 2419 1100 
L 313 1100 
L 313 1709 
L 2253 4666 
z
" transform="scale(0.015625)"/>
       </defs>
       <use xlink:href="#DejaVuSans-2d" transform="translate(0 0.09375)"/>
       <use xlink:href="#DejaVuSans-37" transform="translate(36.083984 0.09375)"/>
       <use xlink:href="#DejaVuSans-Oblique-3c0" transform="translate(99.707031 0.09375)"/>
       <use xlink:href="#DejaVuSans-2f" transform="translate(159.912109 0.09375)"/>
       <use xlink:href="#DejaVuSans-34" transform="translate(193.603516 0.09375)"/>
      </g>
     </g>
    </g>
    <g id="xtick_4">
     <g id="line2d_7">
      <path d="M 372.954545 961.2 
L 372.954545 129.6 
" clip-path="url(#p6b8449a0bb)" style="fill: none; stroke: #b0b0b0; stroke-width: 0.8; stroke-linecap: square"/>
     </g>
     <g id="line2d_8">
      <g>
       <use xlink:href="#mf59da77c5e" x="372.954545" y="545.4" style="stroke: #000000; stroke-width: 0.8"/>
      </g>
     </g>
     <g id="text_4">
      <!-- -5$\pi$/3 -->
      <g transform="translate(377.093608 591.1) rotate(-90) scale(0.15 -0.15)">
       <defs>
        <path id="DejaVuSans-35" d="M 691 4666 
L 3169 4666 
L 3169 4134 
L 1269 4134 
L 1269 2991 
Q 1406 3038 1543 3061 
Q 1681 3084 1819 3084 
Q 2600 3084 3056 2656 
Q 3513 2228 3513 1497 
Q 3513 744 3044 326 
Q 2575 -91 1722 -91 
Q 1428 -91 1123 -41 
Q 819 9 494 109 
L 494 744 
Q 775 591 1075 516 
Q 1375 441 1709 441 
Q 2250 441 2565 725 
Q 2881 1009 2881 1497 
Q 2881 1984 2565 2268 
Q 2250 2553 1709 2553 
Q 1456 2553 1204 2497 
Q 953 2441 691 2322 
L 691 4666 
z
" transform="scale(0.015625)"/>
        <path id="DejaVuSans-33" d="M 2597 2516 
Q 3050 2419 3304 2112 
Q 3559 1806 3559 1356 
Q 3559 666 3084 287 
Q 2609 -91 1734 -91 
Q 1441 -91 1130 -33 
Q 819 25 488 141 
L 488 750 
Q 750 597 1062 519 
Q 1375 441 1716 441 
Q 2309 441 2620 675 
Q 2931 909 2931 1356 
Q 2931 1769 2642 2001 
Q 2353 2234 1838 2234 
L 1294 2234 
L 1294 2753 
L 1863 2753 
Q 2328 2753 2575 2939 
Q 2822 3125 2822 3475 
Q 2822 3834 2567 4026 
Q 2313 4219 1838 4219 
Q 1578 4219 1281 4162 
Q 984 4106 628 3988 
L 628 4550 
Q 988 4650 1302 4700 
Q 1616 4750 1894 4750 
Q 2613 4750 3031 4423 
Q 3450 4097 3450 3541 
Q 3450 3153 3228 2886 
Q 3006 2619 2597 2516 
z
" transform="scale(0.015625)"/>
       </defs>
       <use xlink:href="#DejaVuSans-2d" transform="translate(0 0.78125)"/>
       <use xlink:href="#DejaVuSans-35" transform="translate(36.083984 0.78125)"/>
       <use xlink:href="#DejaVuSans-Oblique-3c0" transform="translate(99.707031 0.78125)"/>
       <use xlink:href="#DejaVuSans-2f" transform="translate(159.912109 0.78125)"/>
       <use xlink:href="#DejaVuSans-33" transform="translate(193.603516 0.78125)"/>
      </g>
     </g>
    </g>
    <g id="xtick_5">
     <g id="line2d_9">
      <path d="M 415.227273 961.2 
L 415.227273 129.6 
" clip-path="url(#p6b8449a0bb)" style="fill: none; stroke: #b0b0b0; stroke-width: 0.8; stroke-linecap: square"/>
     </g>
     <g id="line2d_10">
      <g>
       <use xlink:href="#mf59da77c5e" x="415.227273" y="545.4" style="stroke: #000000; stroke-width: 0.8"/>
      </g>
     </g>
     <g id="text_5">
      <!-- -3$\pi$/2 -->
      <g transform="translate(419.366335 590.5) rotate(-90) scale(0.15 -0.15)">
       <use xlink:href="#DejaVuSans-2d" transform="translate(0 0.78125)"/>
       <use xlink:href="#DejaVuSans-33" transform="translate(36.083984 0.78125)"/>
       <use xlink:href="#DejaVuSans-Oblique-3c0" transform="translate(99.707031 0.78125)"/>
       <use xlink:href="#DejaVuSans-2f" transform="translate(159.912109 0.78125)"/>
       <use xlink:href="#DejaVuSans-32" transform="translate(189.978516 0.78125)"/>
      </g>
     </g>
    </g>
    <g id="xtick_6">
     <g id="line2d_11">
      <path d="M 457.5 961.2 
L 457.5 129.6 
" clip-path="url(#p6b8449a0bb)" style="fill: none; stroke: #b0b0b0; stroke-width: 0.8; stroke-linecap: square"/>
     </g>
     <g id="line2d_12">
      <g>
       <use xlink:href="#mf59da77c5e" x="457.5" y="545.4" style="stroke: #000000; stroke-width: 0.8"/>
      </g>
     </g>
     <g id="text_6">
      <!-- -4$\pi$/3 -->
      <g transform="translate(461.639062 591.1) rotate(-90) scale(0.15 -0.15)">
       <use xlink:href="#DejaVuSans-2d" transform="translate(0 0.78125)"/>
       <use xlink:href="#DejaVuSans-34" transform="translate(36.083984 0.78125)"/>
       <use xlink:href="#DejaVuSans-Oblique-3c0" transform="translate(99.707031 0.78125)"/>
       <use xlink:href="#DejaVuSans-2f" transform="translate(159.912109 0.78125)"/>
       <use xlink:href="#DejaVuSans-33" transform="translate(193.603516 0.78125)"/>
      </g>
     </g>
    </g>
    <g id="xtick_7">
     <g id="line2d_13">
      <path d="M 478.636364 961.2 
L 478.636364 129.6 
" clip-path="url(#p6b8449a0bb)" style="fill: none; stroke: #b0b0b0; stroke-width: 0.8; stroke-linecap: square"/>
     </g>
     <g id="line2d_14">
      <g>
       <use xlink:href="#mf59da77c5e" x="478.636364" y="545.4" style="stroke: #000000; stroke-width: 0.8"/>
      </g>
     </g>
     <g id="text_7">
      <!-- -5$\pi$/4 -->
      <g transform="translate(482.775426 591.1) rotate(-90) scale(0.15 -0.15)">
       <use xlink:href="#DejaVuSans-2d" transform="translate(0 0.09375)"/>
       <use xlink:href="#DejaVuSans-35" transform="translate(36.083984 0.09375)"/>
       <use xlink:href="#DejaVuSans-Oblique-3c0" transform="translate(99.707031 0.09375)"/>
       <use xlink:href="#DejaVuSans-2f" transform="translate(159.912109 0.09375)"/>
       <use xlink:href="#DejaVuSans-34" transform="translate(193.603516 0.09375)"/>
      </g>
     </g>
    </g>
    <g id="xtick_8">
     <g id="line2d_15">
      <path d="M 499.772727 961.2 
L 499.772727 129.6 
" clip-path="url(#p6b8449a0bb)" style="fill: none; stroke: #b0b0b0; stroke-width: 0.8; stroke-linecap: square"/>
     </g>
     <g id="line2d_16">
      <g>
       <use xlink:href="#mf59da77c5e" x="499.772727" y="545.4" style="stroke: #000000; stroke-width: 0.8"/>
      </g>
     </g>
     <g id="text_8">
      <!-- -7$\pi$/6 -->
      <g transform="translate(503.91179 591.1) rotate(-90) scale(0.15 -0.15)">
       <use xlink:href="#DejaVuSans-2d" transform="translate(0 0.78125)"/>
       <use xlink:href="#DejaVuSans-37" transform="translate(36.083984 0.78125)"/>
       <use xlink:href="#DejaVuSans-Oblique-3c0" transform="translate(99.707031 0.78125)"/>
       <use xlink:href="#DejaVuSans-2f" transform="translate(159.912109 0.78125)"/>
       <use xlink:href="#DejaVuSans-36" transform="translate(193.603516 0.78125)"/>
      </g>
     </g>
    </g>
    <g id="xtick_9">
     <g id="line2d_17">
      <path d="M 542.045455 961.2 
L 542.045455 129.6 
" clip-path="url(#p6b8449a0bb)" style="fill: none; stroke: #b0b0b0; stroke-width: 0.8; stroke-linecap: square"/>
     </g>
     <g id="line2d_18">
      <g>
       <use xlink:href="#mf59da77c5e" x="542.045455" y="545.4" style="stroke: #000000; stroke-width: 0.8"/>
      </g>
     </g>
     <g id="text_9">
      <!-- -$\pi$ -->
      <g transform="translate(546.184517 566.95) rotate(-90) scale(0.15 -0.15)">
       <use xlink:href="#DejaVuSans-2d" transform="translate(0 0.3125)"/>
       <use xlink:href="#DejaVuSans-Oblique-3c0" transform="translate(36.083984 0.3125)"/>
      </g>
     </g>
    </g>
    <g id="xtick_10">
     <g id="line2d_19">
      <path d="M 584.318182 961.2 
L 584.318182 129.6 
" clip-path="url(#p6b8449a0bb)" style="fill: none; stroke: #b0b0b0; stroke-width: 0.8; stroke-linecap: square"/>
     </g>
     <g id="line2d_20">
      <g>
       <use xlink:href="#mf59da77c5e" x="584.318182" y="545.4" style="stroke: #000000; stroke-width: 0.8"/>
      </g>
     </g>
     <g id="text_10">
      <!-- -5$\pi$/6 -->
      <g transform="translate(588.457244 591.1) rotate(-90) scale(0.15 -0.15)">
       <use xlink:href="#DejaVuSans-2d" transform="translate(0 0.78125)"/>
       <use xlink:href="#DejaVuSans-35" transform="translate(36.083984 0.78125)"/>
       <use xlink:href="#DejaVuSans-Oblique-3c0" transform="translate(99.707031 0.78125)"/>
       <use xlink:href="#DejaVuSans-2f" transform="translate(159.912109 0.78125)"/>
       <use xlink:href="#DejaVuSans-36" transform="translate(193.603516 0.78125)"/>
      </g>
     </g>
    </g>
    <g id="xtick_11">
     <g id="line2d_21">
      <path d="M 605.454545 961.2 
L 605.454545 129.6 
" clip-path="url(#p6b8449a0bb)" style="fill: none; stroke: #b0b0b0; stroke-width: 0.8; stroke-linecap: square"/>
     </g>
     <g id="line2d_22">
      <g>
       <use xlink:href="#mf59da77c5e" x="605.454545" y="545.4" style="stroke: #000000; stroke-width: 0.8"/>
      </g>
     </g>
     <g id="text_11">
      <!-- -3$\pi$/4 -->
      <g transform="translate(609.593608 591.1) rotate(-90) scale(0.15 -0.15)">
       <use xlink:href="#DejaVuSans-2d" transform="translate(0 0.78125)"/>
       <use xlink:href="#DejaVuSans-33" transform="translate(36.083984 0.78125)"/>
       <use xlink:href="#DejaVuSans-Oblique-3c0" transform="translate(99.707031 0.78125)"/>
       <use xlink:href="#DejaVuSans-2f" transform="translate(159.912109 0.78125)"/>
       <use xlink:href="#DejaVuSans-34" transform="translate(193.603516 0.78125)"/>
      </g>
     </g>
    </g>
    <g id="xtick_12">
     <g id="line2d_23">
      <path d="M 626.590909 961.2 
L 626.590909 129.6 
" clip-path="url(#p6b8449a0bb)" style="fill: none; stroke: #b0b0b0; stroke-width: 0.8; stroke-linecap: square"/>
     </g>
     <g id="line2d_24">
      <g>
       <use xlink:href="#mf59da77c5e" x="626.590909" y="545.4" style="stroke: #000000; stroke-width: 0.8"/>
      </g>
     </g>
     <g id="text_12">
      <!-- -2$\pi$/3 -->
      <g transform="translate(630.729972 591.1) rotate(-90) scale(0.15 -0.15)">
       <use xlink:href="#DejaVuSans-2d" transform="translate(0 0.78125)"/>
       <use xlink:href="#DejaVuSans-32" transform="translate(36.083984 0.78125)"/>
       <use xlink:href="#DejaVuSans-Oblique-3c0" transform="translate(99.707031 0.78125)"/>
       <use xlink:href="#DejaVuSans-2f" transform="translate(159.912109 0.78125)"/>
       <use xlink:href="#DejaVuSans-33" transform="translate(193.603516 0.78125)"/>
      </g>
     </g>
    </g>
    <g id="xtick_13">
     <g id="line2d_25">
      <path d="M 668.863636 961.2 
L 668.863636 129.6 
" clip-path="url(#p6b8449a0bb)" style="fill: none; stroke: #b0b0b0; stroke-width: 0.8; stroke-linecap: square"/>
     </g>
     <g id="line2d_26">
      <g>
       <use xlink:href="#mf59da77c5e" x="668.863636" y="545.4" style="stroke: #000000; stroke-width: 0.8"/>
      </g>
     </g>
     <g id="text_13">
      <!-- -$\pi$/2 -->
      <g transform="translate(673.002699 580.9) rotate(-90) scale(0.15 -0.15)">
       <use xlink:href="#DejaVuSans-2d" transform="translate(0 0.78125)"/>
       <use xlink:href="#DejaVuSans-Oblique-3c0" transform="translate(36.083984 0.78125)"/>
       <use xlink:href="#DejaVuSans-2f" transform="translate(96.289062 0.78125)"/>
       <use xlink:href="#DejaVuSans-32" transform="translate(126.355469 0.78125)"/>
      </g>
     </g>
    </g>
    <g id="xtick_14">
     <g id="line2d_27">
      <path d="M 711.136364 961.2 
L 711.136364 129.6 
" clip-path="url(#p6b8449a0bb)" style="fill: none; stroke: #b0b0b0; stroke-width: 0.8; stroke-linecap: square"/>
     </g>
     <g id="line2d_28">
      <g>
       <use xlink:href="#mf59da77c5e" x="711.136364" y="545.4" style="stroke: #000000; stroke-width: 0.8"/>
      </g>
     </g>
     <g id="text_14">
      <!-- -$\pi$/3 -->
      <g transform="translate(715.275426 581.5) rotate(-90) scale(0.15 -0.15)">
       <use xlink:href="#DejaVuSans-2d" transform="translate(0 0.78125)"/>
       <use xlink:href="#DejaVuSans-Oblique-3c0" transform="translate(36.083984 0.78125)"/>
       <use xlink:href="#DejaVuSans-2f" transform="translate(96.289062 0.78125)"/>
       <use xlink:href="#DejaVuSans-33" transform="translate(129.980469 0.78125)"/>
      </g>
     </g>
    </g>
    <g id="xtick_15">
     <g id="line2d_29">
      <path d="M 732.272727 961.2 
L 732.272727 129.6 
" clip-path="url(#p6b8449a0bb)" style="fill: none; stroke: #b0b0b0; stroke-width: 0.8; stroke-linecap: square"/>
     </g>
     <g id="line2d_30">
      <g>
       <use xlink:href="#mf59da77c5e" x="732.272727" y="545.4" style="stroke: #000000; stroke-width: 0.8"/>
      </g>
     </g>
     <g id="text_15">
      <!-- -$\pi$/4 -->
      <g transform="translate(736.41179 581.5) rotate(-90) scale(0.15 -0.15)">
       <use xlink:href="#DejaVuSans-2d" transform="translate(0 0.09375)"/>
       <use xlink:href="#DejaVuSans-Oblique-3c0" transform="translate(36.083984 0.09375)"/>
       <use xlink:href="#DejaVuSans-2f" transform="translate(96.289062 0.09375)"/>
       <use xlink:href="#DejaVuSans-34" transform="translate(129.980469 0.09375)"/>
      </g>
     </g>
    </g>
    <g id="xtick_16">
     <g id="line2d_31">
      <path d="M 753.409091 961.2 
L 753.409091 129.6 
" clip-path="url(#p6b8449a0bb)" style="fill: none; stroke: #b0b0b0; stroke-width: 0.8; stroke-linecap: square"/>
     </g>
     <g id="line2d_32">
      <g>
       <use xlink:href="#mf59da77c5e" x="753.409091" y="545.4" style="stroke: #000000; stroke-width: 0.8"/>
      </g>
     </g>
     <g id="text_16">
      <!-- -$\pi$/6 -->
      <g transform="translate(757.548153 581.5) rotate(-90) scale(0.15 -0.15)">
       <use xlink:href="#DejaVuSans-2d" transform="translate(0 0.78125)"/>
       <use xlink:href="#DejaVuSans-Oblique-3c0" transform="translate(36.083984 0.78125)"/>
       <use xlink:href="#DejaVuSans-2f" transform="translate(96.289062 0.78125)"/>
       <use xlink:href="#DejaVuSans-36" transform="translate(129.980469 0.78125)"/>
      </g>
     </g>
    </g>
    <g id="xtick_17">
     <g id="line2d_33">
      <path d="M 795.681818 961.2 
L 795.681818 129.6 
" clip-path="url(#p6b8449a0bb)" style="fill: none; stroke: #b0b0b0; stroke-width: 0.8; stroke-linecap: square"/>
     </g>
     <g id="line2d_34">
      <g>
       <use xlink:href="#mf59da77c5e" x="795.681818" y="545.4" style="stroke: #000000; stroke-width: 0.8"/>
      </g>
     </g>
     <g id="text_17">
      <!-- 0 -->
      <g transform="translate(799.820881 561.94375) rotate(-90) scale(0.15 -0.15)">
       <defs>
        <path id="DejaVuSans-30" d="M 2034 4250 
Q 1547 4250 1301 3770 
Q 1056 3291 1056 2328 
Q 1056 1369 1301 889 
Q 1547 409 2034 409 
Q 2525 409 2770 889 
Q 3016 1369 3016 2328 
Q 3016 3291 2770 3770 
Q 2525 4250 2034 4250 
z
M 2034 4750 
Q 2819 4750 3233 4129 
Q 3647 3509 3647 2328 
Q 3647 1150 3233 529 
Q 2819 -91 2034 -91 
Q 1250 -91 836 529 
Q 422 1150 422 2328 
Q 422 3509 836 4129 
Q 1250 4750 2034 4750 
z
" transform="scale(0.015625)"/>
       </defs>
       <use xlink:href="#DejaVuSans-30"/>
      </g>
     </g>
    </g>
    <g id="xtick_18">
     <g id="line2d_35">
      <path d="M 837.954545 961.2 
L 837.954545 129.6 
" clip-path="url(#p6b8449a0bb)" style="fill: none; stroke: #b0b0b0; stroke-width: 0.8; stroke-linecap: square"/>
     </g>
     <g id="line2d_36">
      <g>
       <use xlink:href="#mf59da77c5e" x="837.954545" y="545.4" style="stroke: #000000; stroke-width: 0.8"/>
      </g>
     </g>
     <g id="text_18">
      <!-- $\pi$/6 -->
      <g transform="translate(842.093608 576.1) rotate(-90) scale(0.15 -0.15)">
       <use xlink:href="#DejaVuSans-Oblique-3c0" transform="translate(0 0.78125)"/>
       <use xlink:href="#DejaVuSans-2f" transform="translate(60.205078 0.78125)"/>
       <use xlink:href="#DejaVuSans-36" transform="translate(93.896484 0.78125)"/>
      </g>
     </g>
    </g>
    <g id="xtick_19">
     <g id="line2d_37">
      <path d="M 859.090909 961.2 
L 859.090909 129.6 
" clip-path="url(#p6b8449a0bb)" style="fill: none; stroke: #b0b0b0; stroke-width: 0.8; stroke-linecap: square"/>
     </g>
     <g id="line2d_38">
      <g>
       <use xlink:href="#mf59da77c5e" x="859.090909" y="545.4" style="stroke: #000000; stroke-width: 0.8"/>
      </g>
     </g>
     <g id="text_19">
      <!-- $\pi$/4 -->
      <g transform="translate(863.229972 576.1) rotate(-90) scale(0.15 -0.15)">
       <use xlink:href="#DejaVuSans-Oblique-3c0" transform="translate(0 0.09375)"/>
       <use xlink:href="#DejaVuSans-2f" transform="translate(60.205078 0.09375)"/>
       <use xlink:href="#DejaVuSans-34" transform="translate(93.896484 0.09375)"/>
      </g>
     </g>
    </g>
    <g id="xtick_20">
     <g id="line2d_39">
      <path d="M 880.227273 961.2 
L 880.227273 129.6 
" clip-path="url(#p6b8449a0bb)" style="fill: none; stroke: #b0b0b0; stroke-width: 0.8; stroke-linecap: square"/>
     </g>
     <g id="line2d_40">
      <g>
       <use xlink:href="#mf59da77c5e" x="880.227273" y="545.4" style="stroke: #000000; stroke-width: 0.8"/>
      </g>
     </g>
     <g id="text_20">
      <!-- $\pi$/3 -->
      <g transform="translate(884.366335 576.1) rotate(-90) scale(0.15 -0.15)">
       <use xlink:href="#DejaVuSans-Oblique-3c0" transform="translate(0 0.78125)"/>
       <use xlink:href="#DejaVuSans-2f" transform="translate(60.205078 0.78125)"/>
       <use xlink:href="#DejaVuSans-33" transform="translate(93.896484 0.78125)"/>
      </g>
     </g>
    </g>
    <g id="xtick_21">
     <g id="line2d_41">
      <path d="M 922.5 961.2 
L 922.5 129.6 
" clip-path="url(#p6b8449a0bb)" style="fill: none; stroke: #b0b0b0; stroke-width: 0.8; stroke-linecap: square"/>
     </g>
     <g id="line2d_42">
      <g>
       <use xlink:href="#mf59da77c5e" x="922.5" y="545.4" style="stroke: #000000; stroke-width: 0.8"/>
      </g>
     </g>
     <g id="text_21">
      <!-- $\pi$/2 -->
      <g transform="translate(926.639063 575.5) rotate(-90) scale(0.15 -0.15)">
       <use xlink:href="#DejaVuSans-Oblique-3c0" transform="translate(0 0.78125)"/>
       <use xlink:href="#DejaVuSans-2f" transform="translate(60.205078 0.78125)"/>
       <use xlink:href="#DejaVuSans-32" transform="translate(90.271484 0.78125)"/>
      </g>
     </g>
    </g>
    <g id="xtick_22">
     <g id="line2d_43">
      <path d="M 964.772727 961.2 
L 964.772727 129.6 
" clip-path="url(#p6b8449a0bb)" style="fill: none; stroke: #b0b0b0; stroke-width: 0.8; stroke-linecap: square"/>
     </g>
     <g id="line2d_44">
      <g>
       <use xlink:href="#mf59da77c5e" x="964.772727" y="545.4" style="stroke: #000000; stroke-width: 0.8"/>
      </g>
     </g>
     <g id="text_22">
      <!-- 2$\pi$/3 -->
      <g transform="translate(968.91179 585.7) rotate(-90) scale(0.15 -0.15)">
       <use xlink:href="#DejaVuSans-32" transform="translate(0 0.78125)"/>
       <use xlink:href="#DejaVuSans-Oblique-3c0" transform="translate(63.623047 0.78125)"/>
       <use xlink:href="#DejaVuSans-2f" transform="translate(123.828125 0.78125)"/>
       <use xlink:href="#DejaVuSans-33" transform="translate(157.519531 0.78125)"/>
      </g>
     </g>
    </g>
    <g id="xtick_23">
     <g id="line2d_45">
      <path d="M 985.909091 961.2 
L 985.909091 129.6 
" clip-path="url(#p6b8449a0bb)" style="fill: none; stroke: #b0b0b0; stroke-width: 0.8; stroke-linecap: square"/>
     </g>
     <g id="line2d_46">
      <g>
       <use xlink:href="#mf59da77c5e" x="985.909091" y="545.4" style="stroke: #000000; stroke-width: 0.8"/>
      </g>
     </g>
     <g id="text_23">
      <!-- 3$\pi$/4 -->
      <g transform="translate(990.048153 585.7) rotate(-90) scale(0.15 -0.15)">
       <use xlink:href="#DejaVuSans-33" transform="translate(0 0.78125)"/>
       <use xlink:href="#DejaVuSans-Oblique-3c0" transform="translate(63.623047 0.78125)"/>
       <use xlink:href="#DejaVuSans-2f" transform="translate(123.828125 0.78125)"/>
       <use xlink:href="#DejaVuSans-34" transform="translate(157.519531 0.78125)"/>
      </g>
     </g>
    </g>
    <g id="xtick_24">
     <g id="line2d_47">
      <path d="M 1007.045455 961.2 
L 1007.045455 129.6 
" clip-path="url(#p6b8449a0bb)" style="fill: none; stroke: #b0b0b0; stroke-width: 0.8; stroke-linecap: square"/>
     </g>
     <g id="line2d_48">
      <g>
       <use xlink:href="#mf59da77c5e" x="1007.045455" y="545.4" style="stroke: #000000; stroke-width: 0.8"/>
      </g>
     </g>
     <g id="text_24">
      <!-- 5$\pi$/6 -->
      <g transform="translate(1011.184517 585.7) rotate(-90) scale(0.15 -0.15)">
       <use xlink:href="#DejaVuSans-35" transform="translate(0 0.78125)"/>
       <use xlink:href="#DejaVuSans-Oblique-3c0" transform="translate(63.623047 0.78125)"/>
       <use xlink:href="#DejaVuSans-2f" transform="translate(123.828125 0.78125)"/>
       <use xlink:href="#DejaVuSans-36" transform="translate(157.519531 0.78125)"/>
      </g>
     </g>
    </g>
    <g id="xtick_25">
     <g id="line2d_49">
      <path d="M 1049.318182 961.2 
L 1049.318182 129.6 
" clip-path="url(#p6b8449a0bb)" style="fill: none; stroke: #b0b0b0; stroke-width: 0.8; stroke-linecap: square"/>
     </g>
     <g id="line2d_50">
      <g>
       <use xlink:href="#mf59da77c5e" x="1049.318182" y="545.4" style="stroke: #000000; stroke-width: 0.8"/>
      </g>
     </g>
     <g id="text_25">
      <!-- $\pi$ -->
      <g transform="translate(1053.457244 561.55) rotate(-90) scale(0.15 -0.15)">
       <use xlink:href="#DejaVuSans-Oblique-3c0" transform="translate(0 0.3125)"/>
      </g>
     </g>
    </g>
    <g id="xtick_26">
     <g id="line2d_51">
      <path d="M 1091.590909 961.2 
L 1091.590909 129.6 
" clip-path="url(#p6b8449a0bb)" style="fill: none; stroke: #b0b0b0; stroke-width: 0.8; stroke-linecap: square"/>
     </g>
     <g id="line2d_52">
      <g>
       <use xlink:href="#mf59da77c5e" x="1091.590909" y="545.4" style="stroke: #000000; stroke-width: 0.8"/>
      </g>
     </g>
     <g id="text_26">
      <!-- 7$\pi$/6 -->
      <g transform="translate(1095.729972 585.7) rotate(-90) scale(0.15 -0.15)">
       <use xlink:href="#DejaVuSans-37" transform="translate(0 0.78125)"/>
       <use xlink:href="#DejaVuSans-Oblique-3c0" transform="translate(63.623047 0.78125)"/>
       <use xlink:href="#DejaVuSans-2f" transform="translate(123.828125 0.78125)"/>
       <use xlink:href="#DejaVuSans-36" transform="translate(157.519531 0.78125)"/>
      </g>
     </g>
    </g>
    <g id="xtick_27">
     <g id="line2d_53">
      <path d="M 1112.727273 961.2 
L 1112.727273 129.6 
" clip-path="url(#p6b8449a0bb)" style="fill: none; stroke: #b0b0b0; stroke-width: 0.8; stroke-linecap: square"/>
     </g>
     <g id="line2d_54">
      <g>
       <use xlink:href="#mf59da77c5e" x="1112.727273" y="545.4" style="stroke: #000000; stroke-width: 0.8"/>
      </g>
     </g>
     <g id="text_27">
      <!-- 5$\pi$/4 -->
      <g transform="translate(1116.866335 585.7) rotate(-90) scale(0.15 -0.15)">
       <use xlink:href="#DejaVuSans-35" transform="translate(0 0.09375)"/>
       <use xlink:href="#DejaVuSans-Oblique-3c0" transform="translate(63.623047 0.09375)"/>
       <use xlink:href="#DejaVuSans-2f" transform="translate(123.828125 0.09375)"/>
       <use xlink:href="#DejaVuSans-34" transform="translate(157.519531 0.09375)"/>
      </g>
     </g>
    </g>
    <g id="xtick_28">
     <g id="line2d_55">
      <path d="M 1133.863636 961.2 
L 1133.863636 129.6 
" clip-path="url(#p6b8449a0bb)" style="fill: none; stroke: #b0b0b0; stroke-width: 0.8; stroke-linecap: square"/>
     </g>
     <g id="line2d_56">
      <g>
       <use xlink:href="#mf59da77c5e" x="1133.863636" y="545.4" style="stroke: #000000; stroke-width: 0.8"/>
      </g>
     </g>
     <g id="text_28">
      <!-- 4$\pi$/3 -->
      <g transform="translate(1138.002699 585.7) rotate(-90) scale(0.15 -0.15)">
       <use xlink:href="#DejaVuSans-34" transform="translate(0 0.78125)"/>
       <use xlink:href="#DejaVuSans-Oblique-3c0" transform="translate(63.623047 0.78125)"/>
       <use xlink:href="#DejaVuSans-2f" transform="translate(123.828125 0.78125)"/>
       <use xlink:href="#DejaVuSans-33" transform="translate(157.519531 0.78125)"/>
      </g>
     </g>
    </g>
    <g id="xtick_29">
     <g id="line2d_57">
      <path d="M 1176.136364 961.2 
L 1176.136364 129.6 
" clip-path="url(#p6b8449a0bb)" style="fill: none; stroke: #b0b0b0; stroke-width: 0.8; stroke-linecap: square"/>
     </g>
     <g id="line2d_58">
      <g>
       <use xlink:href="#mf59da77c5e" x="1176.136364" y="545.4" style="stroke: #000000; stroke-width: 0.8"/>
      </g>
     </g>
     <g id="text_29">
      <!-- 3$\pi$/2 -->
      <g transform="translate(1180.275426 585.1) rotate(-90) scale(0.15 -0.15)">
       <use xlink:href="#DejaVuSans-33" transform="translate(0 0.78125)"/>
       <use xlink:href="#DejaVuSans-Oblique-3c0" transform="translate(63.623047 0.78125)"/>
       <use xlink:href="#DejaVuSans-2f" transform="translate(123.828125 0.78125)"/>
       <use xlink:href="#DejaVuSans-32" transform="translate(153.894531 0.78125)"/>
      </g>
     </g>
    </g>
    <g id="xtick_30">
     <g id="line2d_59">
      <path d="M 1218.409091 961.2 
L 1218.409091 129.6 
" clip-path="url(#p6b8449a0bb)" style="fill: none; stroke: #b0b0b0; stroke-width: 0.8; stroke-linecap: square"/>
     </g>
     <g id="line2d_60">
      <g>
       <use xlink:href="#mf59da77c5e" x="1218.409091" y="545.4" style="stroke: #000000; stroke-width: 0.8"/>
      </g>
     </g>
     <g id="text_30">
      <!-- 5$\pi$/3 -->
      <g transform="translate(1222.548153 585.7) rotate(-90) scale(0.15 -0.15)">
       <use xlink:href="#DejaVuSans-35" transform="translate(0 0.78125)"/>
       <use xlink:href="#DejaVuSans-Oblique-3c0" transform="translate(63.623047 0.78125)"/>
       <use xlink:href="#DejaVuSans-2f" transform="translate(123.828125 0.78125)"/>
       <use xlink:href="#DejaVuSans-33" transform="translate(157.519531 0.78125)"/>
      </g>
     </g>
    </g>
    <g id="xtick_31">
     <g id="line2d_61">
      <path d="M 1239.545455 961.2 
L 1239.545455 129.6 
" clip-path="url(#p6b8449a0bb)" style="fill: none; stroke: #b0b0b0; stroke-width: 0.8; stroke-linecap: square"/>
     </g>
     <g id="line2d_62">
      <g>
       <use xlink:href="#mf59da77c5e" x="1239.545455" y="545.4" style="stroke: #000000; stroke-width: 0.8"/>
      </g>
     </g>
     <g id="text_31">
      <!-- 7$\pi$/4 -->
      <g transform="translate(1243.684517 585.7) rotate(-90) scale(0.15 -0.15)">
       <use xlink:href="#DejaVuSans-37" transform="translate(0 0.09375)"/>
       <use xlink:href="#DejaVuSans-Oblique-3c0" transform="translate(63.623047 0.09375)"/>
       <use xlink:href="#DejaVuSans-2f" transform="translate(123.828125 0.09375)"/>
       <use xlink:href="#DejaVuSans-34" transform="translate(157.519531 0.09375)"/>
      </g>
     </g>
    </g>
    <g id="xtick_32">
     <g id="line2d_63">
      <path d="M 1260.681818 961.2 
L 1260.681818 129.6 
" clip-path="url(#p6b8449a0bb)" style="fill: none; stroke: #b0b0b0; stroke-width: 0.8; stroke-linecap: square"/>
     </g>
     <g id="line2d_64">
      <g>
       <use xlink:href="#mf59da77c5e" x="1260.681818" y="545.4" style="stroke: #000000; stroke-width: 0.8"/>
      </g>
     </g>
     <g id="text_32">
      <!-- 11$\pi$/6 -->
      <g transform="translate(1264.820881 595.15) rotate(-90) scale(0.15 -0.15)">
       <use xlink:href="#DejaVuSans-31" transform="translate(0 0.78125)"/>
       <use xlink:href="#DejaVuSans-31" transform="translate(63.623047 0.78125)"/>
       <use xlink:href="#DejaVuSans-Oblique-3c0" transform="translate(127.246094 0.78125)"/>
       <use xlink:href="#DejaVuSans-2f" transform="translate(187.451172 0.78125)"/>
       <use xlink:href="#DejaVuSans-36" transform="translate(221.142578 0.78125)"/>
      </g>
     </g>
    </g>
    <g id="xtick_33">
     <g id="line2d_65">
      <path d="M 1302.954545 961.2 
L 1302.954545 129.6 
" clip-path="url(#p6b8449a0bb)" style="fill: none; stroke: #b0b0b0; stroke-width: 0.8; stroke-linecap: square"/>
     </g>
     <g id="line2d_66">
      <g>
       <use xlink:href="#mf59da77c5e" x="1302.954545" y="545.4" style="stroke: #000000; stroke-width: 0.8"/>
      </g>
     </g>
     <g id="text_33">
      <!-- 2$\pi$ -->
      <g transform="translate(1307.093608 571) rotate(-90) scale(0.15 -0.15)">
       <use xlink:href="#DejaVuSans-32" transform="translate(0 0.78125)"/>
       <use xlink:href="#DejaVuSans-Oblique-3c0" transform="translate(63.623047 0.78125)"/>
      </g>
     </g>
    </g>
    <g id="xtick_34">
     <g id="line2d_67">
      <path d="M 1345.227273 961.2 
L 1345.227273 129.6 
" clip-path="url(#p6b8449a0bb)" style="fill: none; stroke: #b0b0b0; stroke-width: 0.8; stroke-linecap: square"/>
     </g>
     <g id="line2d_68">
      <g>
       <use xlink:href="#mf59da77c5e" x="1345.227273" y="545.4" style="stroke: #000000; stroke-width: 0.8"/>
      </g>
     </g>
     <g id="text_34">
      <!-- 13$\pi$/6 -->
      <g transform="translate(1349.366335 595.15) rotate(-90) scale(0.15 -0.15)">
       <use xlink:href="#DejaVuSans-31" transform="translate(0 0.78125)"/>
       <use xlink:href="#DejaVuSans-33" transform="translate(63.623047 0.78125)"/>
       <use xlink:href="#DejaVuSans-Oblique-3c0" transform="translate(127.246094 0.78125)"/>
       <use xlink:href="#DejaVuSans-2f" transform="translate(187.451172 0.78125)"/>
       <use xlink:href="#DejaVuSans-36" transform="translate(221.142578 0.78125)"/>
      </g>
     </g>
    </g>
    <g id="xtick_35">
     <g id="line2d_69">
      <path d="M 1366.363636 961.2 
L 1366.363636 129.6 
" clip-path="url(#p6b8449a0bb)" style="fill: none; stroke: #b0b0b0; stroke-width: 0.8; stroke-linecap: square"/>
     </g>
     <g id="line2d_70">
      <g>
       <use xlink:href="#mf59da77c5e" x="1366.363636" y="545.4" style="stroke: #000000; stroke-width: 0.8"/>
      </g>
     </g>
     <g id="text_35">
      <!-- 9$\pi$/4 -->
      <g transform="translate(1370.502699 585.7) rotate(-90) scale(0.15 -0.15)">
       <defs>
        <path id="DejaVuSans-39" d="M 703 97 
L 703 672 
Q 941 559 1184 500 
Q 1428 441 1663 441 
Q 2288 441 2617 861 
Q 2947 1281 2994 2138 
Q 2813 1869 2534 1725 
Q 2256 1581 1919 1581 
Q 1219 1581 811 2004 
Q 403 2428 403 3163 
Q 403 3881 828 4315 
Q 1253 4750 1959 4750 
Q 2769 4750 3195 4129 
Q 3622 3509 3622 2328 
Q 3622 1225 3098 567 
Q 2575 -91 1691 -91 
Q 1453 -91 1209 -44 
Q 966 3 703 97 
z
M 1959 2075 
Q 2384 2075 2632 2365 
Q 2881 2656 2881 3163 
Q 2881 3666 2632 3958 
Q 2384 4250 1959 4250 
Q 1534 4250 1286 3958 
Q 1038 3666 1038 3163 
Q 1038 2656 1286 2365 
Q 1534 2075 1959 2075 
z
" transform="scale(0.015625)"/>
       </defs>
       <use xlink:href="#DejaVuSans-39" transform="translate(0 0.78125)"/>
       <use xlink:href="#DejaVuSans-Oblique-3c0" transform="translate(63.623047 0.78125)"/>
       <use xlink:href="#DejaVuSans-2f" transform="translate(123.828125 0.78125)"/>
       <use xlink:href="#DejaVuSans-34" transform="translate(157.519531 0.78125)"/>
      </g>
     </g>
    </g>
    <g id="xtick_36">
     <g id="line2d_71">
      <path d="M 1387.5 961.2 
L 1387.5 129.6 
" clip-path="url(#p6b8449a0bb)" style="fill: none; stroke: #b0b0b0; stroke-width: 0.8; stroke-linecap: square"/>
     </g>
     <g id="line2d_72">
      <g>
       <use xlink:href="#mf59da77c5e" x="1387.5" y="545.4" style="stroke: #000000; stroke-width: 0.8"/>
      </g>
     </g>
     <g id="text_36">
      <!-- 7$\pi$/3 -->
      <g transform="translate(1391.639062 585.7) rotate(-90) scale(0.15 -0.15)">
       <use xlink:href="#DejaVuSans-37" transform="translate(0 0.78125)"/>
       <use xlink:href="#DejaVuSans-Oblique-3c0" transform="translate(63.623047 0.78125)"/>
       <use xlink:href="#DejaVuSans-2f" transform="translate(123.828125 0.78125)"/>
       <use xlink:href="#DejaVuSans-33" transform="translate(157.519531 0.78125)"/>
      </g>
     </g>
    </g>
    <g id="xtick_37">
     <g id="line2d_73">
      <path d="M 1429.772727 961.2 
L 1429.772727 129.6 
" clip-path="url(#p6b8449a0bb)" style="fill: none; stroke: #b0b0b0; stroke-width: 0.8; stroke-linecap: square"/>
     </g>
     <g id="line2d_74">
      <g>
       <use xlink:href="#mf59da77c5e" x="1429.772727" y="545.4" style="stroke: #000000; stroke-width: 0.8"/>
      </g>
     </g>
     <g id="text_37">
      <!-- 5$\pi$/2 -->
      <g transform="translate(1433.91179 585.1) rotate(-90) scale(0.15 -0.15)">
       <use xlink:href="#DejaVuSans-35" transform="translate(0 0.78125)"/>
       <use xlink:href="#DejaVuSans-Oblique-3c0" transform="translate(63.623047 0.78125)"/>
       <use xlink:href="#DejaVuSans-2f" transform="translate(123.828125 0.78125)"/>
       <use xlink:href="#DejaVuSans-32" transform="translate(153.894531 0.78125)"/>
      </g>
     </g>
    </g>
    <g id="xtick_38">
     <g id="line2d_75">
      <path d="M 1472.045455 961.2 
L 1472.045455 129.6 
" clip-path="url(#p6b8449a0bb)" style="fill: none; stroke: #b0b0b0; stroke-width: 0.8; stroke-linecap: square"/>
     </g>
     <g id="line2d_76">
      <g>
       <use xlink:href="#mf59da77c5e" x="1472.045455" y="545.4" style="stroke: #000000; stroke-width: 0.8"/>
      </g>
     </g>
     <g id="text_38">
      <!-- 8$\pi$/3 -->
      <g transform="translate(1476.184517 585.7) rotate(-90) scale(0.15 -0.15)">
       <defs>
        <path id="DejaVuSans-38" d="M 2034 2216 
Q 1584 2216 1326 1975 
Q 1069 1734 1069 1313 
Q 1069 891 1326 650 
Q 1584 409 2034 409 
Q 2484 409 2743 651 
Q 3003 894 3003 1313 
Q 3003 1734 2745 1975 
Q 2488 2216 2034 2216 
z
M 1403 2484 
Q 997 2584 770 2862 
Q 544 3141 544 3541 
Q 544 4100 942 4425 
Q 1341 4750 2034 4750 
Q 2731 4750 3128 4425 
Q 3525 4100 3525 3541 
Q 3525 3141 3298 2862 
Q 3072 2584 2669 2484 
Q 3125 2378 3379 2068 
Q 3634 1759 3634 1313 
Q 3634 634 3220 271 
Q 2806 -91 2034 -91 
Q 1263 -91 848 271 
Q 434 634 434 1313 
Q 434 1759 690 2068 
Q 947 2378 1403 2484 
z
M 1172 3481 
Q 1172 3119 1398 2916 
Q 1625 2713 2034 2713 
Q 2441 2713 2670 2916 
Q 2900 3119 2900 3481 
Q 2900 3844 2670 4047 
Q 2441 4250 2034 4250 
Q 1625 4250 1398 4047 
Q 1172 3844 1172 3481 
z
" transform="scale(0.015625)"/>
       </defs>
       <use xlink:href="#DejaVuSans-38" transform="translate(0 0.78125)"/>
       <use xlink:href="#DejaVuSans-Oblique-3c0" transform="translate(63.623047 0.78125)"/>
       <use xlink:href="#DejaVuSans-2f" transform="translate(123.828125 0.78125)"/>
       <use xlink:href="#DejaVuSans-33" transform="translate(157.519531 0.78125)"/>
      </g>
     </g>
    </g>
    <g id="xtick_39">
     <g id="line2d_77">
      <path d="M 1493.181818 961.2 
L 1493.181818 129.6 
" clip-path="url(#p6b8449a0bb)" style="fill: none; stroke: #b0b0b0; stroke-width: 0.8; stroke-linecap: square"/>
     </g>
     <g id="line2d_78">
      <g>
       <use xlink:href="#mf59da77c5e" x="1493.181818" y="545.4" style="stroke: #000000; stroke-width: 0.8"/>
      </g>
     </g>
     <g id="text_39">
      <!-- 11$\pi$/4 -->
      <g transform="translate(1497.320881 595.15) rotate(-90) scale(0.15 -0.15)">
       <use xlink:href="#DejaVuSans-31" transform="translate(0 0.09375)"/>
       <use xlink:href="#DejaVuSans-31" transform="translate(63.623047 0.09375)"/>
       <use xlink:href="#DejaVuSans-Oblique-3c0" transform="translate(127.246094 0.09375)"/>
       <use xlink:href="#DejaVuSans-2f" transform="translate(187.451172 0.09375)"/>
       <use xlink:href="#DejaVuSans-34" transform="translate(221.142578 0.09375)"/>
      </g>
     </g>
    </g>
    <g id="xtick_40">
     <g id="line2d_79">
      <path d="M 1514.318182 961.2 
L 1514.318182 129.6 
" clip-path="url(#p6b8449a0bb)" style="fill: none; stroke: #b0b0b0; stroke-width: 0.8; stroke-linecap: square"/>
     </g>
     <g id="line2d_80">
      <g>
       <use xlink:href="#mf59da77c5e" x="1514.318182" y="545.4" style="stroke: #000000; stroke-width: 0.8"/>
      </g>
     </g>
     <g id="text_40">
      <!-- 17$\pi$/6 -->
      <g transform="translate(1518.457244 595.15) rotate(-90) scale(0.15 -0.15)">
       <use xlink:href="#DejaVuSans-31" transform="translate(0 0.78125)"/>
       <use xlink:href="#DejaVuSans-37" transform="translate(63.623047 0.78125)"/>
       <use xlink:href="#DejaVuSans-Oblique-3c0" transform="translate(127.246094 0.78125)"/>
       <use xlink:href="#DejaVuSans-2f" transform="translate(187.451172 0.78125)"/>
       <use xlink:href="#DejaVuSans-36" transform="translate(221.142578 0.78125)"/>
      </g>
     </g>
    </g>
    <g id="xtick_41">
     <g id="line2d_81">
      <path d="M 1556.590909 961.2 
L 1556.590909 129.6 
" clip-path="url(#p6b8449a0bb)" style="fill: none; stroke: #b0b0b0; stroke-width: 0.8; stroke-linecap: square"/>
     </g>
     <g id="line2d_82">
      <g>
       <use xlink:href="#mf59da77c5e" x="1556.590909" y="545.4" style="stroke: #000000; stroke-width: 0.8"/>
      </g>
     </g>
     <g id="text_41">
      <!-- 3$\pi$ -->
      <g transform="translate(1560.729972 571) rotate(-90) scale(0.15 -0.15)">
       <use xlink:href="#DejaVuSans-33" transform="translate(0 0.78125)"/>
       <use xlink:href="#DejaVuSans-Oblique-3c0" transform="translate(63.623047 0.78125)"/>
      </g>
     </g>
    </g>
    <g id="text_42">
     <!-- x -->
     <g transform="translate(1608.1625 619.746875) scale(0.2 -0.2)">
      <defs>
       <path id="DejaVuSans-78" d="M 3513 3500 
L 2247 1797 
L 3578 0 
L 2900 0 
L 1881 1375 
L 863 0 
L 184 0 
L 1544 1831 
L 300 3500 
L 978 3500 
L 1906 2253 
L 2834 3500 
L 3513 3500 
z
" transform="scale(0.015625)"/>
      </defs>
      <use xlink:href="#DejaVuSans-78"/>
     </g>
    </g>
   </g>
   <g id="matplotlib.axis_2">
    <g id="ytick_1">
     <g id="line2d_83">
      <path d="M 225 822.6 
L 1620 822.6 
" clip-path="url(#p6b8449a0bb)" style="fill: none; stroke: #b0b0b0; stroke-width: 0.8; stroke-linecap: square"/>
     </g>
     <g id="line2d_84">
      <defs>
       <path id="m54fe719f28" d="M 0 0 
L -3.5 0 
" style="stroke: #000000; stroke-width: 0.8"/>
      </defs>
      <g>
       <use xlink:href="#m54fe719f28" x="795.681818" y="822.6" style="stroke: #000000; stroke-width: 0.8"/>
      </g>
     </g>
     <g id="text_43">
      <!-- $-2$ -->
      <g transform="translate(766.481818 828.298828) scale(0.15 -0.15)">
       <defs>
        <path id="DejaVuSans-2212" d="M 678 2272 
L 4684 2272 
L 4684 1741 
L 678 1741 
L 678 2272 
z
" transform="scale(0.015625)"/>
       </defs>
       <use xlink:href="#DejaVuSans-2212" transform="translate(0 0.78125)"/>
       <use xlink:href="#DejaVuSans-32" transform="translate(83.789062 0.78125)"/>
      </g>
     </g>
    </g>
    <g id="ytick_2">
     <g id="line2d_85">
      <path d="M 225 785.462242 
L 1620 785.462242 
" clip-path="url(#p6b8449a0bb)" style="fill: none; stroke: #b0b0b0; stroke-width: 0.8; stroke-linecap: square"/>
     </g>
     <g id="line2d_86">
      <g>
       <use xlink:href="#m54fe719f28" x="795.681818" y="785.462242" style="stroke: #000000; stroke-width: 0.8"/>
      </g>
     </g>
     <g id="text_44">
      <!-- $-\sqrt{3}$ -->
      <g transform="translate(753.581818 792.452476) scale(0.15 -0.15)">
       <defs>
        <path id="STIXSizeOneSym-Regular-221a" d="M 6970 9933 
L 3373 -1888 
L 3104 -1888 
L 1626 2918 
Q 1555 3149 1465 3251 
Q 1376 3354 1229 3354 
Q 1011 3354 794 3181 
L 717 3309 
L 1766 4115 
L 1926 4115 
L 3379 -602 
L 3405 -602 
L 6605 9933 
L 6970 9933 
z
" transform="scale(0.015625)"/>
       </defs>
       <use xlink:href="#DejaVuSans-2212" transform="translate(0 0.296875)"/>
       <use xlink:href="#STIXSizeOneSym-Regular-221a" transform="translate(83.789062 15.984375) scale(0.578716)"/>
       <use xlink:href="#DejaVuSans-33" transform="translate(157.462936 0.53125)"/>
       <path d="M 144.962936 99.5 
L 144.962936 105.75 
L 233.585983 105.75 
L 233.585983 99.5 
L 144.962936 99.5 
z
"/>
      </g>
     </g>
    </g>
    <g id="ytick_3">
     <g id="line2d_87">
      <path d="M 225 753.3 
L 1620 753.3 
" clip-path="url(#p6b8449a0bb)" style="fill: none; stroke: #b0b0b0; stroke-width: 0.8; stroke-linecap: square"/>
     </g>
     <g id="line2d_88">
      <g>
       <use xlink:href="#m54fe719f28" x="795.681818" y="753.3" style="stroke: #000000; stroke-width: 0.8"/>
      </g>
     </g>
     <g id="text_45">
      <!-- $-1.5$ -->
      <g transform="translate(752.231818 758.998828) scale(0.15 -0.15)">
       <defs>
        <path id="DejaVuSans-2e" d="M 684 794 
L 1344 794 
L 1344 0 
L 684 0 
L 684 794 
z
" transform="scale(0.015625)"/>
       </defs>
       <use xlink:href="#DejaVuSans-2212" transform="translate(0 0.09375)"/>
       <use xlink:href="#DejaVuSans-31" transform="translate(83.789062 0.09375)"/>
       <use xlink:href="#DejaVuSans-2e" transform="translate(147.412109 0.09375)"/>
       <use xlink:href="#DejaVuSans-35" transform="translate(179.199219 0.09375)"/>
      </g>
     </g>
    </g>
    <g id="ytick_4">
     <g id="line2d_89">
      <path d="M 225 741.41 
L 1620 741.41 
" clip-path="url(#p6b8449a0bb)" style="fill: none; stroke: #b0b0b0; stroke-width: 0.8; stroke-linecap: square"/>
     </g>
     <g id="line2d_90">
      <g>
       <use xlink:href="#m54fe719f28" x="795.681818" y="741.41" style="stroke: #000000; stroke-width: 0.8"/>
      </g>
     </g>
     <g id="text_46">
      <!-- $-\sqrt{2}$ -->
      <g transform="translate(753.731818 748.250234) scale(0.15 -0.15)">
       <use xlink:href="#DejaVuSans-2212" transform="translate(0 0.71875)"/>
       <use xlink:href="#STIXSizeOneSym-Regular-221a" transform="translate(83.789062 17.53125) scale(0.571018)"/>
       <use xlink:href="#DejaVuSans-32" transform="translate(156.670181 0.53125)"/>
       <path d="M 144.170181 99.5 
L 144.170181 105.75 
L 232.793228 105.75 
L 232.793228 99.5 
L 144.170181 99.5 
z
"/>
      </g>
     </g>
    </g>
    <g id="ytick_5">
     <g id="line2d_91">
      <path d="M 225 684 
L 1620 684 
" clip-path="url(#p6b8449a0bb)" style="fill: none; stroke: #b0b0b0; stroke-width: 0.8; stroke-linecap: square"/>
     </g>
     <g id="line2d_92">
      <g>
       <use xlink:href="#m54fe719f28" x="795.681818" y="684" style="stroke: #000000; stroke-width: 0.8"/>
      </g>
     </g>
     <g id="text_47">
      <!-- $-1.0$ -->
      <g transform="translate(752.231818 689.698828) scale(0.15 -0.15)">
       <use xlink:href="#DejaVuSans-2212" transform="translate(0 0.78125)"/>
       <use xlink:href="#DejaVuSans-31" transform="translate(83.789062 0.78125)"/>
       <use xlink:href="#DejaVuSans-2e" transform="translate(147.412109 0.78125)"/>
       <use xlink:href="#DejaVuSans-30" transform="translate(179.199219 0.78125)"/>
      </g>
     </g>
    </g>
    <g id="ytick_6">
     <g id="line2d_93">
      <path d="M 225 665.431121 
L 1620 665.431121 
" clip-path="url(#p6b8449a0bb)" style="fill: none; stroke: #b0b0b0; stroke-width: 0.8; stroke-linecap: square"/>
     </g>
     <g id="line2d_94">
      <g>
       <use xlink:href="#m54fe719f28" x="795.681818" y="665.431121" style="stroke: #000000; stroke-width: 0.8"/>
      </g>
     </g>
     <g id="text_48">
      <!-- $-\sqrt{3}/2$ -->
      <g transform="translate(739.481818 673.021355) scale(0.15 -0.15)">
       <use xlink:href="#DejaVuSans-2212" transform="translate(0 0.296875)"/>
       <use xlink:href="#STIXSizeOneSym-Regular-221a" transform="translate(83.789062 15.984375) scale(0.578716)"/>
       <use xlink:href="#DejaVuSans-33" transform="translate(157.462936 0.53125)"/>
       <use xlink:href="#DejaVuSans-2f" transform="translate(233.585983 0.296875)"/>
       <use xlink:href="#DejaVuSans-32" transform="translate(263.65239 0.296875)"/>
       <path d="M 144.962936 99.5 
L 144.962936 105.75 
L 233.585983 105.75 
L 233.585983 99.5 
L 144.962936 99.5 
z
"/>
      </g>
     </g>
    </g>
    <g id="ytick_7">
     <g id="line2d_95">
      <path d="M 225 643.405 
L 1620 643.405 
" clip-path="url(#p6b8449a0bb)" style="fill: none; stroke: #b0b0b0; stroke-width: 0.8; stroke-linecap: square"/>
     </g>
     <g id="line2d_96">
      <g>
       <use xlink:href="#m54fe719f28" x="795.681818" y="643.405" style="stroke: #000000; stroke-width: 0.8"/>
      </g>
     </g>
     <g id="text_49">
      <!-- $-\sqrt{2}/2$ -->
      <g transform="translate(739.631818 650.995234) scale(0.15 -0.15)">
       <use xlink:href="#DejaVuSans-2212" transform="translate(0 0.71875)"/>
       <use xlink:href="#STIXSizeOneSym-Regular-221a" transform="translate(83.789062 17.53125) scale(0.571018)"/>
       <use xlink:href="#DejaVuSans-32" transform="translate(156.670181 0.53125)"/>
       <use xlink:href="#DejaVuSans-2f" transform="translate(232.793228 0.71875)"/>
       <use xlink:href="#DejaVuSans-32" transform="translate(262.859634 0.71875)"/>
       <path d="M 144.170181 99.5 
L 144.170181 105.75 
L 232.793228 105.75 
L 232.793228 99.5 
L 144.170181 99.5 
z
"/>
      </g>
     </g>
    </g>
    <g id="ytick_8">
     <g id="line2d_97">
      <path d="M 225 614.7 
L 1620 614.7 
" clip-path="url(#p6b8449a0bb)" style="fill: none; stroke: #b0b0b0; stroke-width: 0.8; stroke-linecap: square"/>
     </g>
     <g id="line2d_98">
      <g>
       <use xlink:href="#m54fe719f28" x="795.681818" y="614.7" style="stroke: #000000; stroke-width: 0.8"/>
      </g>
     </g>
     <g id="text_50">
      <!-- $-0.5$ -->
      <g transform="translate(752.231818 620.398828) scale(0.15 -0.15)">
       <use xlink:href="#DejaVuSans-2212" transform="translate(0 0.78125)"/>
       <use xlink:href="#DejaVuSans-30" transform="translate(83.789062 0.78125)"/>
       <use xlink:href="#DejaVuSans-2e" transform="translate(147.412109 0.78125)"/>
       <use xlink:href="#DejaVuSans-35" transform="translate(179.199219 0.78125)"/>
      </g>
     </g>
    </g>
    <g id="ytick_9">
     <g id="line2d_99">
      <path d="M 225 545.4 
L 1620 545.4 
" clip-path="url(#p6b8449a0bb)" style="fill: none; stroke: #b0b0b0; stroke-width: 0.8; stroke-linecap: square"/>
     </g>
     <g id="line2d_100">
      <g>
       <use xlink:href="#m54fe719f28" x="795.681818" y="545.4" style="stroke: #000000; stroke-width: 0.8"/>
      </g>
     </g>
     <g id="text_51">
      <!-- $-0.0$ -->
      <g transform="translate(752.231818 551.098828) scale(0.15 -0.15)">
       <use xlink:href="#DejaVuSans-2212" transform="translate(0 0.78125)"/>
       <use xlink:href="#DejaVuSans-30" transform="translate(83.789062 0.78125)"/>
       <use xlink:href="#DejaVuSans-2e" transform="translate(147.412109 0.78125)"/>
       <use xlink:href="#DejaVuSans-30" transform="translate(179.199219 0.78125)"/>
      </g>
     </g>
    </g>
    <g id="ytick_10">
     <g id="line2d_101">
      <path d="M 225 476.1 
L 1620 476.1 
" clip-path="url(#p6b8449a0bb)" style="fill: none; stroke: #b0b0b0; stroke-width: 0.8; stroke-linecap: square"/>
     </g>
     <g id="line2d_102">
      <g>
       <use xlink:href="#m54fe719f28" x="795.681818" y="476.1" style="stroke: #000000; stroke-width: 0.8"/>
      </g>
     </g>
     <g id="text_52">
      <!-- $0.5$ -->
      <g transform="translate(764.681818 481.798828) scale(0.15 -0.15)">
       <use xlink:href="#DejaVuSans-30" transform="translate(0 0.78125)"/>
       <use xlink:href="#DejaVuSans-2e" transform="translate(63.623047 0.78125)"/>
       <use xlink:href="#DejaVuSans-35" transform="translate(95.410156 0.78125)"/>
      </g>
     </g>
    </g>
    <g id="ytick_11">
     <g id="line2d_103">
      <path d="M 225 447.395 
L 1620 447.395 
" clip-path="url(#p6b8449a0bb)" style="fill: none; stroke: #b0b0b0; stroke-width: 0.8; stroke-linecap: square"/>
     </g>
     <g id="line2d_104">
      <g>
       <use xlink:href="#m54fe719f28" x="795.681818" y="447.395" style="stroke: #000000; stroke-width: 0.8"/>
      </g>
     </g>
     <g id="text_53">
      <!-- $\sqrt{2}/2$ -->
      <g transform="translate(752.231818 454.985235) scale(0.15 -0.15)">
       <use xlink:href="#STIXSizeOneSym-Regular-221a" transform="translate(0 17.53125) scale(0.571018)"/>
       <use xlink:href="#DejaVuSans-32" transform="translate(72.881119 0.53125)"/>
       <use xlink:href="#DejaVuSans-2f" transform="translate(149.004166 0.71875)"/>
       <use xlink:href="#DejaVuSans-32" transform="translate(179.070572 0.71875)"/>
       <path d="M 60.381119 99.5 
L 60.381119 105.75 
L 149.004166 105.75 
L 149.004166 99.5 
L 60.381119 99.5 
z
"/>
      </g>
     </g>
    </g>
    <g id="ytick_12">
     <g id="line2d_105">
      <path d="M 225 425.368879 
L 1620 425.368879 
" clip-path="url(#p6b8449a0bb)" style="fill: none; stroke: #b0b0b0; stroke-width: 0.8; stroke-linecap: square"/>
     </g>
     <g id="line2d_106">
      <g>
       <use xlink:href="#m54fe719f28" x="795.681818" y="425.368879" style="stroke: #000000; stroke-width: 0.8"/>
      </g>
     </g>
     <g id="text_54">
      <!-- $\sqrt{3}/2$ -->
      <g transform="translate(752.081818 432.959113) scale(0.15 -0.15)">
       <use xlink:href="#STIXSizeOneSym-Regular-221a" transform="translate(0 15.984375) scale(0.578716)"/>
       <use xlink:href="#DejaVuSans-33" transform="translate(73.673874 0.53125)"/>
       <use xlink:href="#DejaVuSans-2f" transform="translate(149.796921 0.296875)"/>
       <use xlink:href="#DejaVuSans-32" transform="translate(179.863327 0.296875)"/>
       <path d="M 61.173874 99.5 
L 61.173874 105.75 
L 149.796921 105.75 
L 149.796921 99.5 
L 61.173874 99.5 
z
"/>
      </g>
     </g>
    </g>
    <g id="ytick_13">
     <g id="line2d_107">
      <path d="M 225 406.8 
L 1620 406.8 
" clip-path="url(#p6b8449a0bb)" style="fill: none; stroke: #b0b0b0; stroke-width: 0.8; stroke-linecap: square"/>
     </g>
     <g id="line2d_108">
      <g>
       <use xlink:href="#m54fe719f28" x="795.681818" y="406.8" style="stroke: #000000; stroke-width: 0.8"/>
      </g>
     </g>
     <g id="text_55">
      <!-- $1.0$ -->
      <g transform="translate(764.681818 412.498828) scale(0.15 -0.15)">
       <use xlink:href="#DejaVuSans-31" transform="translate(0 0.78125)"/>
       <use xlink:href="#DejaVuSans-2e" transform="translate(63.623047 0.78125)"/>
       <use xlink:href="#DejaVuSans-30" transform="translate(95.410156 0.78125)"/>
      </g>
     </g>
    </g>
    <g id="ytick_14">
     <g id="line2d_109">
      <path d="M 225 349.39 
L 1620 349.39 
" clip-path="url(#p6b8449a0bb)" style="fill: none; stroke: #b0b0b0; stroke-width: 0.8; stroke-linecap: square"/>
     </g>
     <g id="line2d_110">
      <g>
       <use xlink:href="#m54fe719f28" x="795.681818" y="349.39" style="stroke: #000000; stroke-width: 0.8"/>
      </g>
     </g>
     <g id="text_56">
      <!-- $\sqrt{2}$ -->
      <g transform="translate(766.181818 356.230235) scale(0.15 -0.15)">
       <use xlink:href="#STIXSizeOneSym-Regular-221a" transform="translate(0 17.53125) scale(0.571018)"/>
       <use xlink:href="#DejaVuSans-32" transform="translate(72.881119 0.53125)"/>
       <path d="M 60.381119 99.5 
L 60.381119 105.75 
L 149.004166 105.75 
L 149.004166 99.5 
L 60.381119 99.5 
z
"/>
      </g>
     </g>
    </g>
    <g id="ytick_15">
     <g id="line2d_111">
      <path d="M 225 337.5 
L 1620 337.5 
" clip-path="url(#p6b8449a0bb)" style="fill: none; stroke: #b0b0b0; stroke-width: 0.8; stroke-linecap: square"/>
     </g>
     <g id="line2d_112">
      <g>
       <use xlink:href="#m54fe719f28" x="795.681818" y="337.5" style="stroke: #000000; stroke-width: 0.8"/>
      </g>
     </g>
     <g id="text_57">
      <!-- $1.5$ -->
      <g transform="translate(764.681818 343.198828) scale(0.15 -0.15)">
       <use xlink:href="#DejaVuSans-31" transform="translate(0 0.09375)"/>
       <use xlink:href="#DejaVuSans-2e" transform="translate(63.623047 0.09375)"/>
       <use xlink:href="#DejaVuSans-35" transform="translate(95.410156 0.09375)"/>
      </g>
     </g>
    </g>
    <g id="ytick_16">
     <g id="line2d_113">
      <path d="M 225 305.337758 
L 1620 305.337758 
" clip-path="url(#p6b8449a0bb)" style="fill: none; stroke: #b0b0b0; stroke-width: 0.8; stroke-linecap: square"/>
     </g>
     <g id="line2d_114">
      <g>
       <use xlink:href="#m54fe719f28" x="795.681818" y="305.337758" style="stroke: #000000; stroke-width: 0.8"/>
      </g>
     </g>
     <g id="text_58">
      <!-- $\sqrt{3}$ -->
      <g transform="translate(766.181818 312.327992) scale(0.15 -0.15)">
       <use xlink:href="#STIXSizeOneSym-Regular-221a" transform="translate(0 15.984375) scale(0.578716)"/>
       <use xlink:href="#DejaVuSans-33" transform="translate(73.673874 0.53125)"/>
       <path d="M 61.173874 99.5 
L 61.173874 105.75 
L 149.796921 105.75 
L 149.796921 99.5 
L 61.173874 99.5 
z
"/>
      </g>
     </g>
    </g>
    <g id="ytick_17">
     <g id="line2d_115">
      <path d="M 225 268.2 
L 1620 268.2 
" clip-path="url(#p6b8449a0bb)" style="fill: none; stroke: #b0b0b0; stroke-width: 0.8; stroke-linecap: square"/>
     </g>
     <g id="line2d_116">
      <g>
       <use xlink:href="#m54fe719f28" x="795.681818" y="268.2" style="stroke: #000000; stroke-width: 0.8"/>
      </g>
     </g>
     <g id="text_59">
      <!-- $2$ -->
      <g transform="translate(779.081818 273.898828) scale(0.15 -0.15)">
       <use xlink:href="#DejaVuSans-32" transform="translate(0 0.78125)"/>
      </g>
     </g>
    </g>
    <g id="text_60">
     <!-- y -->
     <g transform="translate(723.644318 125.440625) scale(0.2 -0.2)">
      <defs>
       <path id="DejaVuSans-79" d="M 2059 -325 
Q 1816 -950 1584 -1140 
Q 1353 -1331 966 -1331 
L 506 -1331 
L 506 -850 
L 844 -850 
Q 1081 -850 1212 -737 
Q 1344 -625 1503 -206 
L 1606 56 
L 191 3500 
L 800 3500 
L 1894 763 
L 2988 3500 
L 3597 3500 
L 2059 -325 
z
" transform="scale(0.015625)"/>
      </defs>
      <use xlink:href="#DejaVuSans-79"/>
     </g>
    </g>
   </g>
   <g id="line2d_117">
    <path d="M 288.409091 545.4 
L 304.911957 517.265939 
L 313.798116 502.528794 
L 321.414824 490.303305 
L 327.76208 480.48523 
L 334.109337 471.068176 
L 340.456593 462.110321 
L 345.534398 455.311951 
L 350.612203 448.869829 
L 355.690008 442.809431 
L 360.767813 437.154721 
L 364.576167 433.193437 
L 368.384521 429.481778 
L 372.192875 426.028002 
L 376.001229 422.839792 
L 379.809582 419.924242 
L 383.617936 417.287837 
L 387.42629 414.936443 
L 391.234644 412.875291 
L 395.042998 411.108965 
L 398.851351 409.641397 
L 402.659705 408.47585 
L 406.468059 407.614918 
L 410.276413 407.060516 
L 414.084767 406.813878 
L 417.89312 406.875551 
L 421.701474 407.245399 
L 425.509828 407.9226 
L 429.318182 408.905645 
L 433.126536 410.19235 
L 436.934889 411.77985 
L 440.743243 413.664614 
L 444.551597 415.84245 
L 448.359951 418.308512 
L 452.168305 421.057314 
L 455.976658 424.082741 
L 459.785012 427.378062 
L 463.593366 430.935945 
L 467.40172 434.748477 
L 471.210074 438.807174 
L 476.287879 444.586013 
L 481.365684 450.763516 
L 486.443489 457.315253 
L 491.521294 464.215316 
L 496.599099 471.43642 
L 502.946355 480.870649 
L 509.293612 490.703519 
L 516.910319 502.943491 
L 525.796478 517.692864 
L 537.22154 537.123575 
L 560.071663 576.08962 
L 568.957821 590.750341 
L 576.574529 602.886399 
L 582.921785 612.613673 
L 589.269042 621.925723 
L 594.346847 629.037649 
L 599.424652 635.818834 
L 604.502457 642.242462 
L 609.580262 648.283132 
L 614.658067 653.916957 
L 618.466421 657.861868 
L 622.274775 661.556585 
L 626.083129 664.992889 
L 629.891482 668.163136 
L 633.699836 671.060271 
L 637.50819 673.677851 
L 641.316544 676.010051 
L 645.124898 678.051684 
L 648.933251 679.798207 
L 652.741605 681.245735 
L 656.549959 682.391047 
L 660.358313 683.231595 
L 664.166667 683.765511 
L 667.97502 683.991605 
L 671.783374 683.909375 
L 675.591728 683.519003 
L 679.400082 682.821359 
L 683.208436 681.817993 
L 687.01679 680.51114 
L 690.825143 678.903704 
L 694.633497 676.999264 
L 698.441851 674.802055 
L 702.250205 672.316966 
L 706.058559 669.549526 
L 709.866912 666.50589 
L 713.675266 663.19283 
L 717.48362 659.617718 
L 721.291974 655.788505 
L 726.369779 650.302425 
L 731.447584 644.401514 
L 736.525389 638.109107 
L 741.603194 631.450086 
L 746.680999 624.450786 
L 753.028256 615.265426 
L 759.375512 605.648461 
L 765.722768 595.6593 
L 773.339476 583.268036 
L 782.225635 568.393807 
L 796.189599 544.528285 
L 812.692465 516.412928 
L 821.578624 501.700676 
L 829.195332 489.504516 
L 835.542588 479.71632 
L 841.889844 470.333897 
L 846.967649 463.159159 
L 852.045455 456.309637 
L 857.12326 449.812419 
L 862.201065 443.693196 
L 867.27887 437.976167 
L 872.356675 432.68394 
L 876.165029 429.006201 
L 879.973382 425.587402 
L 883.781736 422.435151 
L 887.59009 419.556459 
L 891.398444 416.95773 
L 895.206798 414.644746 
L 899.015152 412.622654 
L 902.823505 410.89595 
L 906.631859 409.468477 
L 910.440213 408.343411 
L 914.248567 407.523254 
L 918.056921 407.00983 
L 921.865274 406.804283 
L 925.673628 406.90707 
L 929.481982 407.317961 
L 933.290336 408.036042 
L 937.09869 409.059717 
L 940.907043 410.386707 
L 944.715397 412.014061 
L 948.523751 413.938159 
L 952.332105 416.154719 
L 956.140459 418.65881 
L 959.948812 421.444862 
L 963.757166 424.506677 
L 967.56552 427.837443 
L 971.373874 431.429749 
L 975.182228 435.275605 
L 980.260033 440.782956 
L 985.337838 446.704009 
L 990.415643 453.01535 
L 995.493448 459.692022 
L 1000.571253 466.70762 
L 1006.918509 475.911353 
L 1013.265766 485.544363 
L 1020.882473 497.586668 
L 1028.499181 510.054217 
L 1038.654791 527.147033 
L 1072.929975 585.359654 
L 1080.546683 597.683976 
L 1086.893939 607.603566 
L 1093.241196 617.138883 
L 1099.588452 626.231021 
L 1104.666257 633.147795 
L 1109.744062 639.717576 
L 1114.821867 645.914383 
L 1119.899672 651.713711 
L 1124.977477 657.092628 
L 1128.785831 660.83806 
L 1132.594185 664.326677 
L 1136.402539 667.550718 
L 1140.210893 670.503011 
L 1144.019247 673.176988 
L 1147.8276 675.5667 
L 1151.635954 677.66683 
L 1155.444308 679.472707 
L 1159.252662 680.980313 
L 1163.061016 682.186294 
L 1166.869369 683.087966 
L 1170.677723 683.683325 
L 1174.486077 683.971046 
L 1178.294431 683.950488 
L 1182.102785 683.621697 
L 1185.911138 682.985405 
L 1189.719492 682.043027 
L 1193.527846 680.79666 
L 1197.3362 679.249076 
L 1201.144554 677.403719 
L 1204.952907 675.264693 
L 1208.761261 672.836758 
L 1212.569615 670.125315 
L 1216.377969 667.136396 
L 1220.186323 663.876651 
L 1223.994676 660.353331 
L 1227.80303 656.574275 
L 1231.611384 652.547889 
L 1236.689189 646.8102 
L 1241.766994 640.67149 
L 1246.844799 634.156034 
L 1251.922604 627.289597 
L 1257.00041 620.099332 
L 1263.347666 610.699548 
L 1269.694922 600.896364 
L 1277.31163 588.685479 
L 1286.197789 573.960708 
L 1297.62285 554.546421 
L 1320.472973 515.561064 
L 1329.359132 500.874287 
L 1336.975839 488.707937 
L 1343.323096 478.950009 
L 1349.670352 469.602588 
L 1354.748157 462.459115 
L 1359.825962 455.643627 
L 1364.903767 449.183075 
L 1369.981572 443.103009 
L 1375.059378 437.42747 
L 1378.867731 433.449851 
L 1382.676085 429.721287 
L 1386.484439 426.250073 
L 1390.292793 423.043932 
L 1394.101147 420.109996 
L 1397.9095 417.454792 
L 1401.717854 415.084227 
L 1405.526208 413.003576 
L 1409.334562 411.217466 
L 1413.142916 409.729871 
L 1416.951269 408.544102 
L 1420.759623 407.662795 
L 1424.567977 407.087912 
L 1428.376331 406.820731 
L 1432.184685 406.861847 
L 1435.993038 407.211168 
L 1439.801392 407.867917 
L 1443.609746 408.830634 
L 1447.4181 410.097176 
L 1451.226454 411.664726 
L 1455.034808 413.529796 
L 1458.843161 415.688237 
L 1462.651515 418.135248 
L 1466.459869 420.865384 
L 1470.268223 423.872571 
L 1474.076577 427.150121 
L 1477.88493 430.69074 
L 1481.693284 434.486553 
L 1485.501638 438.529114 
L 1490.579443 444.287407 
L 1495.657248 450.445543 
L 1500.735053 456.979172 
L 1505.812858 463.862456 
L 1510.890663 471.068176 
L 1517.23792 480.48523 
L 1523.585176 490.303305 
L 1531.201884 502.528794 
L 1540.088043 517.265939 
L 1551.513104 536.688534 
L 1556.590909 545.4 
L 1556.590909 545.4 
" clip-path="url(#p6b8449a0bb)" style="fill: none; stroke: #1f77b4; stroke-width: 1.5; stroke-linecap: square"/>
   </g>
   <g id="patch_3">
    <path d="M 795.681818 961.2 
L 795.681818 129.6 
" style="fill: none; stroke: #000000; stroke-width: 0.8; stroke-linejoin: miter; stroke-linecap: square"/>
   </g>
   <g id="patch_4">
    <path d="M 795.681818 961.2 
L 795.681818 129.6 
" style="fill: none; stroke: #000000; stroke-width: 0.8; stroke-linejoin: miter; stroke-linecap: square"/>
   </g>
   <g id="patch_5">
    <path d="M 225 545.4 
L 1620 545.4 
" style="fill: none; stroke: #000000; stroke-width: 0.8; stroke-linejoin: miter; stroke-linecap: square"/>
   </g>
   <g id="patch_6">
    <path d="M 225 545.4 
L 1620 545.4 
" style="fill: none; stroke: #000000; stroke-width: 0.8; stroke-linejoin: miter; stroke-linecap: square"/>
   </g>
   <g id="legend_1">
    <g id="patch_7">
     <path d="M 1422.2 174.95625 
L 1606 174.95625 
Q 1610 174.95625 1610 170.95625 
L 1610 143.6 
Q 1610 139.6 1606 139.6 
L 1422.2 139.6 
Q 1418.2 139.6 1418.2 143.6 
L 1418.2 170.95625 
Q 1418.2 174.95625 1422.2 174.95625 
z
" style="fill: #ffffff; opacity: 0.8; stroke: #cccccc; stroke-linejoin: miter"/>
    </g>
    <g id="line2d_118">
     <path d="M 1426.2 155.796875 
L 1446.2 155.796875 
L 1466.2 155.796875 
" style="fill: none; stroke: #1f77b4; stroke-width: 1.5; stroke-linecap: square"/>
    </g>
    <g id="text_61">
     <!-- $k(x) = \sin(x)$ -->
     <g transform="translate(1482.2 162.796875) scale(0.2 -0.2)">
      <defs>
       <path id="DejaVuSans-Oblique-6b" d="M 1172 4863 
L 1747 4863 
L 1197 2028 
L 3169 3500 
L 3916 3500 
L 1716 1825 
L 3322 0 
L 2625 0 
L 1131 1709 
L 800 0 
L 225 0 
L 1172 4863 
z
" transform="scale(0.015625)"/>
       <path id="DejaVuSans-28" d="M 1984 4856 
Q 1566 4138 1362 3434 
Q 1159 2731 1159 2009 
Q 1159 1288 1364 580 
Q 1569 -128 1984 -844 
L 1484 -844 
Q 1016 -109 783 600 
Q 550 1309 550 2009 
Q 550 2706 781 3412 
Q 1013 4119 1484 4856 
L 1984 4856 
z
" transform="scale(0.015625)"/>
       <path id="DejaVuSans-Oblique-78" d="M 3841 3500 
L 2234 1784 
L 3219 0 
L 2559 0 
L 1819 1388 
L 531 0 
L -166 0 
L 1556 1844 
L 641 3500 
L 1300 3500 
L 1972 2234 
L 3144 3500 
L 3841 3500 
z
" transform="scale(0.015625)"/>
       <path id="DejaVuSans-29" d="M 513 4856 
L 1013 4856 
Q 1481 4119 1714 3412 
Q 1947 2706 1947 2009 
Q 1947 1309 1714 600 
Q 1481 -109 1013 -844 
L 513 -844 
Q 928 -128 1133 580 
Q 1338 1288 1338 2009 
Q 1338 2731 1133 3434 
Q 928 4138 513 4856 
z
" transform="scale(0.015625)"/>
       <path id="DejaVuSans-3d" d="M 678 2906 
L 4684 2906 
L 4684 2381 
L 678 2381 
L 678 2906 
z
M 678 1631 
L 4684 1631 
L 4684 1100 
L 678 1100 
L 678 1631 
z
" transform="scale(0.015625)"/>
       <path id="DejaVuSans-73" d="M 2834 3397 
L 2834 2853 
Q 2591 2978 2328 3040 
Q 2066 3103 1784 3103 
Q 1356 3103 1142 2972 
Q 928 2841 928 2578 
Q 928 2378 1081 2264 
Q 1234 2150 1697 2047 
L 1894 2003 
Q 2506 1872 2764 1633 
Q 3022 1394 3022 966 
Q 3022 478 2636 193 
Q 2250 -91 1575 -91 
Q 1294 -91 989 -36 
Q 684 19 347 128 
L 347 722 
Q 666 556 975 473 
Q 1284 391 1588 391 
Q 1994 391 2212 530 
Q 2431 669 2431 922 
Q 2431 1156 2273 1281 
Q 2116 1406 1581 1522 
L 1381 1569 
Q 847 1681 609 1914 
Q 372 2147 372 2553 
Q 372 3047 722 3315 
Q 1072 3584 1716 3584 
Q 2034 3584 2315 3537 
Q 2597 3491 2834 3397 
z
" transform="scale(0.015625)"/>
       <path id="DejaVuSans-69" d="M 603 3500 
L 1178 3500 
L 1178 0 
L 603 0 
L 603 3500 
z
M 603 4863 
L 1178 4863 
L 1178 4134 
L 603 4134 
L 603 4863 
z
" transform="scale(0.015625)"/>
       <path id="DejaVuSans-6e" d="M 3513 2113 
L 3513 0 
L 2938 0 
L 2938 2094 
Q 2938 2591 2744 2837 
Q 2550 3084 2163 3084 
Q 1697 3084 1428 2787 
Q 1159 2491 1159 1978 
L 1159 0 
L 581 0 
L 581 3500 
L 1159 3500 
L 1159 2956 
Q 1366 3272 1645 3428 
Q 1925 3584 2291 3584 
Q 2894 3584 3203 3211 
Q 3513 2838 3513 2113 
z
" transform="scale(0.015625)"/>
      </defs>
      <use xlink:href="#DejaVuSans-Oblique-6b" transform="translate(0 0.015625)"/>
      <use xlink:href="#DejaVuSans-28" transform="translate(57.910156 0.015625)"/>
      <use xlink:href="#DejaVuSans-Oblique-78" transform="translate(96.923828 0.015625)"/>
      <use xlink:href="#DejaVuSans-29" transform="translate(156.103516 0.015625)"/>
      <use xlink:href="#DejaVuSans-3d" transform="translate(214.599609 0.015625)"/>
      <use xlink:href="#DejaVuSans-73" transform="translate(317.871094 0.015625)"/>
      <use xlink:href="#DejaVuSans-69" transform="translate(369.970703 0.015625)"/>
      <use xlink:href="#DejaVuSans-6e" transform="translate(397.753906 0.015625)"/>
      <use xlink:href="#DejaVuSans-28" transform="translate(461.132812 0.015625)"/>
      <use xlink:href="#DejaVuSans-Oblique-78" transform="translate(500.146484 0.015625)"/>
      <use xlink:href="#DejaVuSans-29" transform="translate(559.326172 0.015625)"/>
     </g>
    </g>
   </g>
  </g>
 </g>
 <defs>
  <clipPath id="p6b8449a0bb">
   <rect x="225" y="129.6" width="1395" height="831.6"/>
  </clipPath>
 </defs>
</svg>
